<svg width="630" height="128" viewBox="0 0 630 128" fill="none" xmlns="http://www.w3.org/2000/svg">
<g clip-path="url(#clip0_120_40)">
<mask id="path-1-inside-1_120_40" fill="white">
<path d="M530 5C530 2.23858 532.239 0 535 0H625C627.761 0 630 2.23858 630 5V95C630 97.7614 627.761 100 625 100H535C532.239 100 530 97.7614 530 95V5Z"/>
</mask>
<path d="M530 5C530 2.23858 532.239 0 535 0H625C627.761 0 630 2.23858 630 5V95C630 97.7614 627.761 100 625 100H535C532.239 100 530 97.7614 530 95V5Z" fill="#1A2961"/>
<path d="M530 5C530 -0.522847 534.477 -5 540 -5H620C625.523 -5 630 -0.522847 630 5C630 5 627.761 5 625 5H535C532.239 5 530 5 530 5ZM630 100H530H630ZM530 100V0V100ZM630 0V100V0Z" fill="#A179DC" mask="url(#path-1-inside-1_120_40)"/>
<mask id="path-3-inside-2_120_40" fill="white">
<path d="M424 5C424 2.23858 426.239 0 429 0H519C521.761 0 524 2.23858 524 5V95C524 97.7614 521.761 100 519 100H429C426.239 100 424 97.7614 424 95V5Z"/>
</mask>
<path d="M424 5C424 2.23858 426.239 0 429 0H519C521.761 0 524 2.23858 524 5V95C524 97.7614 521.761 100 519 100H429C426.239 100 424 97.7614 424 95V5Z" fill="#1A2961"/>
<path d="M424 5C424 -0.522847 428.477 -5 434 -5H514C519.523 -5 524 -0.522847 524 5C524 5 521.761 5 519 5H429C426.239 5 424 5 424 5ZM524 100H424H524ZM424 100V0V100ZM524 0V100V0Z" fill="#659AD2" mask="url(#path-3-inside-2_120_40)"/>
<mask id="path-5-inside-3_120_40" fill="white">
<path d="M318 5C318 2.23858 320.239 0 323 0H413C415.761 0 418 2.23858 418 5V95C418 97.7614 415.761 100 413 100H323C320.239 100 318 97.7614 318 95V5Z"/>
</mask>
<path d="M318 5C318 2.23858 320.239 0 323 0H413C415.761 0 418 2.23858 418 5V95C418 97.7614 415.761 100 413 100H323C320.239 100 318 97.7614 318 95V5Z" fill="#1A2961"/>
<path d="M318 5C318 -0.522847 322.477 -5 328 -5H408C413.523 -5 418 -0.522847 418 5C418 5 415.761 5 413 5H323C320.239 5 318 5 318 5ZM418 100H318H418ZM318 100V0V100ZM418 0V100V0Z" fill="#F7DF1E" mask="url(#path-5-inside-3_120_40)"/>
<mask id="path-7-inside-4_120_40" fill="white">
<path d="M212 5C212 2.23858 214.239 0 217 0H307C309.761 0 312 2.23858 312 5V95C312 97.7614 309.761 100 307 100H217C214.239 100 212 97.7614 212 95V5Z"/>
</mask>
<path d="M212 5C212 2.23858 214.239 0 217 0H307C309.761 0 312 2.23858 312 5V95C312 97.7614 309.761 100 307 100H217C214.239 100 212 97.7614 212 95V5Z" fill="#1A2961"/>
<path d="M212 5C212 -0.522847 216.477 -5 222 -5H302C307.523 -5 312 -0.522847 312 5C312 5 309.761 5 307 5H217C214.239 5 212 5 212 5ZM312 100H212H312ZM212 100V0V100ZM312 0V100V0Z" fill="#EC407A" mask="url(#path-7-inside-4_120_40)"/>
<mask id="path-9-inside-5_120_40" fill="white">
<path d="M106 5C106 2.23858 108.239 0 111 0H201C203.761 0 206 2.23858 206 5V95C206 97.7614 203.761 100 201 100H111C108.239 100 106 97.7614 106 95V5Z"/>
</mask>
<path d="M106 5C106 2.23858 108.239 0 111 0H201C203.761 0 206 2.23858 206 5V95C206 97.7614 203.761 100 201 100H111C108.239 100 106 97.7614 106 95V5Z" fill="#1A2961"/>
<path d="M106 5C106 -0.522847 110.477 -5 116 -5H196C201.523 -5 206 -0.522847 206 5C206 5 203.761 5 201 5H111C108.239 5 106 5 106 5ZM206 100H106H206ZM106 100V0V100ZM206 0V100V0Z" fill="#34A8D9" mask="url(#path-9-inside-5_120_40)"/>
<mask id="path-11-inside-6_120_40" fill="white">
<path d="M0 5C0 2.23858 2.23858 0 5 0H95C97.7614 0 100 2.23858 100 5V95C100 97.7614 97.7614 100 95 100H5C2.23858 100 0 97.7614 0 95V5Z"/>
</mask>
<path d="M0 5C0 2.23858 2.23858 0 5 0H95C97.7614 0 100 2.23858 100 5V95C100 97.7614 97.7614 100 95 100H5C2.23858 100 0 97.7614 0 95V5Z" fill="#1A2961"/>
<path d="M0 5C0 -0.522847 4.47715 -5 10 -5H90C95.5228 -5 100 -0.522847 100 5C100 5 97.7614 5 95 5H5C2.23858 5 0 5 0 5ZM100 100H0H100ZM0 100V0V100ZM100 0V100V0Z" fill="#F16529" mask="url(#path-11-inside-6_120_40)"/>
<path d="M135.247 50.25C135.247 51.6 135.547 52.7917 136.147 53.825C136.763 54.8583 137.563 55.6667 138.547 56.25C139.53 56.8333 140.597 57.125 141.747 57.125C142.58 57.125 143.338 57.0167 144.022 56.8C144.722 56.5833 145.355 56.2833 145.922 55.9C146.488 55.5 146.972 55.0417 147.372 54.525V57.325C146.638 57.975 145.838 58.4583 144.972 58.775C144.105 59.0917 143.03 59.25 141.747 59.25C140.53 59.25 139.388 59.0333 138.322 58.6C137.272 58.15 136.347 57.525 135.547 56.725C134.747 55.9083 134.122 54.95 133.672 53.85C133.222 52.75 132.997 51.55 132.997 50.25C132.997 48.95 133.222 47.75 133.672 46.65C134.122 45.55 134.747 44.6 135.547 43.8C136.347 42.9833 137.272 42.3583 138.322 41.925C139.388 41.475 140.53 41.25 141.747 41.25C143.03 41.25 144.105 41.4083 144.972 41.725C145.838 42.0417 146.638 42.525 147.372 43.175V45.975C146.972 45.4583 146.488 45.0083 145.922 44.625C145.355 44.225 144.722 43.9167 144.022 43.7C143.338 43.4833 142.58 43.375 141.747 43.375C140.597 43.375 139.53 43.6667 138.547 44.25C137.563 44.8333 136.763 45.6417 136.147 46.675C135.547 47.6917 135.247 48.8833 135.247 50.25ZM153.511 53.7C153.911 54.4 154.328 55.0167 154.761 55.55C155.211 56.0833 155.711 56.5 156.261 56.8C156.811 57.1 157.436 57.25 158.136 57.25C159.069 57.25 159.819 56.9917 160.386 56.475C160.953 55.9583 161.236 55.3 161.236 54.5C161.236 53.7167 161.053 53.0917 160.686 52.625C160.319 52.1583 159.836 51.7833 159.236 51.5C158.653 51.2 158.028 50.9333 157.361 50.7C156.928 50.55 156.444 50.3583 155.911 50.125C155.378 49.875 154.869 49.5667 154.386 49.2C153.903 48.8167 153.503 48.35 153.186 47.8C152.886 47.25 152.736 46.575 152.736 45.775C152.736 44.9083 152.953 44.1333 153.386 43.45C153.819 42.7667 154.419 42.2333 155.186 41.85C155.953 41.45 156.828 41.25 157.811 41.25C158.761 41.25 159.586 41.4333 160.286 41.8C161.003 42.15 161.611 42.6083 162.111 43.175C162.611 43.725 163.003 44.3083 163.286 44.925L161.461 45.975C161.244 45.5417 160.969 45.1167 160.636 44.7C160.303 44.2833 159.894 43.9417 159.411 43.675C158.944 43.4083 158.369 43.275 157.686 43.275C156.736 43.275 156.044 43.5083 155.611 43.975C155.178 44.425 154.961 44.9333 154.961 45.5C154.961 45.9833 155.086 46.4333 155.336 46.85C155.586 47.25 156.003 47.6333 156.586 48C157.186 48.35 157.994 48.7 159.011 49.05C159.478 49.2167 159.969 49.4333 160.486 49.7C161.003 49.9667 161.478 50.3083 161.911 50.725C162.361 51.125 162.728 51.6167 163.011 52.2C163.294 52.7667 163.436 53.45 163.436 54.25C163.436 55.0167 163.286 55.7083 162.986 56.325C162.703 56.9417 162.303 57.4667 161.786 57.9C161.286 58.3333 160.711 58.6667 160.061 58.9C159.428 59.1333 158.761 59.25 158.061 59.25C157.111 59.25 156.228 59.05 155.411 58.65C154.611 58.2333 153.903 57.6917 153.286 57.025C152.686 56.3417 152.194 55.6167 151.811 54.85L153.511 53.7ZM168.957 53.7C169.357 54.4 169.774 55.0167 170.207 55.55C170.657 56.0833 171.157 56.5 171.707 56.8C172.257 57.1 172.882 57.25 173.582 57.25C174.515 57.25 175.265 56.9917 175.832 56.475C176.399 55.9583 176.682 55.3 176.682 54.5C176.682 53.7167 176.499 53.0917 176.132 52.625C175.765 52.1583 175.282 51.7833 174.682 51.5C174.099 51.2 173.474 50.9333 172.807 50.7C172.374 50.55 171.89 50.3583 171.357 50.125C170.824 49.875 170.315 49.5667 169.832 49.2C169.349 48.8167 168.949 48.35 168.632 47.8C168.332 47.25 168.182 46.575 168.182 45.775C168.182 44.9083 168.399 44.1333 168.832 43.45C169.265 42.7667 169.865 42.2333 170.632 41.85C171.399 41.45 172.274 41.25 173.257 41.25C174.207 41.25 175.032 41.4333 175.732 41.8C176.449 42.15 177.057 42.6083 177.557 43.175C178.057 43.725 178.449 44.3083 178.732 44.925L176.907 45.975C176.69 45.5417 176.415 45.1167 176.082 44.7C175.749 44.2833 175.34 43.9417 174.857 43.675C174.39 43.4083 173.815 43.275 173.132 43.275C172.182 43.275 171.49 43.5083 171.057 43.975C170.624 44.425 170.407 44.9333 170.407 45.5C170.407 45.9833 170.532 46.4333 170.782 46.85C171.032 47.25 171.449 47.6333 172.032 48C172.632 48.35 173.44 48.7 174.457 49.05C174.924 49.2167 175.415 49.4333 175.932 49.7C176.449 49.9667 176.924 50.3083 177.357 50.725C177.807 51.125 178.174 51.6167 178.457 52.2C178.74 52.7667 178.882 53.45 178.882 54.25C178.882 55.0167 178.732 55.7083 178.432 56.325C178.149 56.9417 177.749 57.4667 177.232 57.9C176.732 58.3333 176.157 58.6667 175.507 58.9C174.874 59.1333 174.207 59.25 173.507 59.25C172.557 59.25 171.674 59.05 170.857 58.65C170.057 58.2333 169.349 57.6917 168.732 57.025C168.132 56.3417 167.64 55.6167 167.257 54.85L168.957 53.7Z" fill="#34A8D9"/>
<path d="M115.652 10.812L115.904 11.616L113.648 12.228L113.456 11.652L115.652 10.812ZM115.268 13.584L114.584 14.076L113.312 12.12L113.792 11.76L115.268 13.584ZM112.52 14.076L111.836 13.584L113.312 11.76L113.792 12.12L112.52 14.076ZM111.2 11.616L111.452 10.812L113.648 11.652L113.456 12.228L111.2 11.616ZM113.132 9.6H113.972L113.852 11.94H113.252L113.132 9.6ZM124.515 10.08V12.12C124.515 12.384 124.503 12.664 124.479 12.96C124.463 13.256 124.411 13.532 124.323 13.788C124.243 14.036 124.111 14.24 123.927 14.4C123.743 14.56 123.487 14.64 123.159 14.64V14.4C123.487 14.4 123.743 14.48 123.927 14.64C124.111 14.8 124.243 15.008 124.323 15.264C124.411 15.512 124.463 15.784 124.479 16.08C124.503 16.376 124.515 16.656 124.515 16.92V18.96C124.515 19.112 124.567 19.248 124.671 19.368C124.775 19.496 124.915 19.56 125.091 19.56H125.511V20.4H124.791C124.615 20.4 124.431 20.34 124.239 20.22C124.047 20.108 123.883 19.928 123.747 19.68C123.619 19.432 123.555 19.112 123.555 18.72V16.2C123.555 15.744 123.503 15.424 123.399 15.24C123.303 15.056 123.163 14.936 122.979 14.88V14.16C123.163 14.096 123.303 13.976 123.399 13.8C123.503 13.616 123.555 13.296 123.555 12.84V10.32C123.555 9.92 123.619 9.6 123.747 9.36C123.883 9.112 124.047 8.932 124.239 8.82C124.431 8.7 124.615 8.64 124.791 8.64H125.511V9.48H125.091C124.915 9.48 124.775 9.54 124.671 9.66C124.567 9.78 124.515 9.92 124.515 10.08Z" fill="#34A8D9"/>
<path d="M111.704 91.96V89.92C111.704 89.656 111.712 89.376 111.728 89.08C111.752 88.784 111.804 88.512 111.884 88.264C111.972 88.008 112.108 87.8 112.292 87.64C112.476 87.48 112.732 87.4 113.06 87.4V87.64C112.732 87.64 112.476 87.56 112.292 87.4C112.108 87.24 111.972 87.036 111.884 86.788C111.804 86.532 111.752 86.256 111.728 85.96C111.712 85.664 111.704 85.384 111.704 85.12V83.08C111.704 82.92 111.652 82.78 111.548 82.66C111.452 82.54 111.312 82.48 111.128 82.48H110.708V81.64H111.428C111.604 81.64 111.788 81.7 111.98 81.82C112.172 81.932 112.332 82.112 112.46 82.36C112.596 82.6 112.664 82.92 112.664 83.32V85.84C112.664 86.296 112.716 86.616 112.82 86.8C112.924 86.976 113.064 87.096 113.24 87.16V87.88C113.064 87.936 112.924 88.056 112.82 88.24C112.716 88.424 112.664 88.744 112.664 89.2V91.72C112.664 92.112 112.596 92.432 112.46 92.68C112.332 92.928 112.172 93.108 111.98 93.22C111.788 93.34 111.604 93.4 111.428 93.4H110.708V92.56H111.128C111.312 92.56 111.452 92.496 111.548 92.368C111.652 92.248 111.704 92.112 111.704 91.96Z" fill="#34A8D9"/>
<path d="M20.0568 50.5V48.5H32.0568V50.5H20.0568ZM30.6318 41.5H32.7568V59H30.6318V41.5ZM18.8818 41.5H21.0068V59H18.8818V41.5ZM36.7529 43.5V41.5H47.8779V43.5H43.3779V59H41.2529V43.5H36.7529ZM54.299 47.175L52.999 59H50.874L52.999 40.625L59.999 53.3L66.999 40.625L69.124 59H66.999L65.699 47.175L59.999 57.375L54.299 47.175ZM73.8633 41.5H75.9883V57H82.8633V59H73.8633V41.5Z" fill="#F16529"/>
<path d="M6.364 14.856L10.9 16.86V17.82L4.78 15.18V14.64L10.9 12V12.96L6.364 14.856ZM14.3758 8.64V18H13.4158V8.64H14.3758ZM16.9558 14.64C16.9558 14.184 16.8558 13.84 16.6558 13.608C16.4638 13.376 16.1718 13.26 15.7798 13.26C15.4998 13.26 15.2518 13.32 15.0358 13.44C14.8278 13.56 14.6638 13.724 14.5438 13.932C14.4318 14.14 14.3758 14.376 14.3758 14.64H14.0638C14.0638 14.2 14.1478 13.812 14.3158 13.476C14.4838 13.132 14.7118 12.86 14.9998 12.66C15.2958 12.46 15.6358 12.36 16.0198 12.36C16.4038 12.36 16.7358 12.44 17.0158 12.6C17.3038 12.76 17.5238 13 17.6758 13.32C17.8358 13.64 17.9158 14.04 17.9158 14.52V18H16.9558V14.64ZM19.7205 12.48H22.4805V13.38H19.7205V12.48ZM20.6205 10.56H21.5805V18H20.6205V10.56ZM31.8433 14.52V18H30.8833V14.64C30.8833 14.168 30.7953 13.82 30.6193 13.596C30.4513 13.372 30.1873 13.26 29.8273 13.26C29.5633 13.26 29.3353 13.316 29.1433 13.428C28.9513 13.532 28.8033 13.688 28.6993 13.896C28.5953 14.104 28.5433 14.352 28.5433 14.64V18H27.5833V14.64C27.5833 14.168 27.4953 13.82 27.3193 13.596C27.1513 13.372 26.8873 13.26 26.5273 13.26C26.2633 13.26 26.0353 13.316 25.8433 13.428C25.6513 13.532 25.5033 13.688 25.3993 13.896C25.2953 14.104 25.2433 14.352 25.2433 14.64V18H24.2833V12.48H25.2433V13.284C25.4113 12.972 25.6193 12.74 25.8673 12.588C26.1233 12.436 26.4233 12.36 26.7673 12.36C27.1513 12.36 27.4793 12.452 27.7513 12.636C28.0313 12.812 28.2353 13.064 28.3633 13.392C28.5553 13.048 28.7953 12.792 29.0833 12.624C29.3713 12.448 29.6993 12.36 30.0673 12.36C30.4433 12.36 30.7633 12.444 31.0273 12.612C31.2913 12.78 31.4913 13.028 31.6273 13.356C31.7713 13.676 31.8433 14.064 31.8433 14.52ZM34.4866 8.64H35.4466V18H34.4866V8.64ZM42.5082 14.964L37.9722 12.96V12L44.0922 14.64V15.18L37.9722 17.82V16.86L42.5082 14.964Z" fill="#F16529"/>
<path d="M6.364 87.856L10.9 89.86V90.82L4.78 88.18V87.64L10.9 85V85.96L6.364 87.856ZM17.5558 82.6H18.5158L13.6558 92.8H12.6958L17.5558 82.6ZM21.3916 81.64V91H20.4316V81.64H21.3916ZM23.9716 87.64C23.9716 87.184 23.8716 86.84 23.6716 86.608C23.4796 86.376 23.1876 86.26 22.7956 86.26C22.5156 86.26 22.2676 86.32 22.0516 86.44C21.8436 86.56 21.6796 86.724 21.5596 86.932C21.4476 87.14 21.3916 87.376 21.3916 87.64H21.0796C21.0796 87.2 21.1636 86.812 21.3316 86.476C21.4996 86.132 21.7276 85.86 22.0156 85.66C22.3116 85.46 22.6516 85.36 23.0356 85.36C23.4196 85.36 23.7516 85.44 24.0316 85.6C24.3196 85.76 24.5396 86 24.6916 86.32C24.8516 86.64 24.9316 87.04 24.9316 87.52V91H23.9716V87.64ZM26.7363 85.48H29.4963V86.38H26.7363V85.48ZM27.6363 83.56H28.5963V91H27.6363V83.56ZM38.8591 87.52V91H37.8991V87.64C37.8991 87.168 37.8111 86.82 37.6351 86.596C37.4671 86.372 37.2031 86.26 36.8431 86.26C36.5791 86.26 36.3511 86.316 36.1591 86.428C35.9671 86.532 35.8191 86.688 35.7151 86.896C35.6111 87.104 35.5591 87.352 35.5591 87.64V91H34.5991V87.64C34.5991 87.168 34.5111 86.82 34.3351 86.596C34.1671 86.372 33.9031 86.26 33.5431 86.26C33.2791 86.26 33.0511 86.316 32.8591 86.428C32.6671 86.532 32.5191 86.688 32.4151 86.896C32.3111 87.104 32.2591 87.352 32.2591 87.64V91H31.2991V85.48H32.2591V86.284C32.4271 85.972 32.6351 85.74 32.8831 85.588C33.1391 85.436 33.4391 85.36 33.7831 85.36C34.1671 85.36 34.4951 85.452 34.7671 85.636C35.0471 85.812 35.2511 86.064 35.3791 86.392C35.5711 86.048 35.8111 85.792 36.0991 85.624C36.3871 85.448 36.7151 85.36 37.0831 85.36C37.4591 85.36 37.7791 85.444 38.0431 85.612C38.3071 85.78 38.5071 86.028 38.6431 86.356C38.7871 86.676 38.8591 87.064 38.8591 87.52ZM41.5023 81.64H42.4623V91H41.5023V81.64ZM49.524 87.964L44.988 85.96V85L51.108 87.64V88.18L44.988 90.82V89.86L49.524 87.964Z" fill="#F16529"/>
<path d="M233.229 53.7C233.629 54.4 234.045 55.0167 234.479 55.55C234.929 56.0833 235.429 56.5 235.979 56.8C236.529 57.1 237.154 57.25 237.854 57.25C238.787 57.25 239.537 56.9917 240.104 56.475C240.67 55.9583 240.954 55.3 240.954 54.5C240.954 53.7167 240.77 53.0917 240.404 52.625C240.037 52.1583 239.554 51.7833 238.954 51.5C238.37 51.2 237.745 50.9333 237.079 50.7C236.645 50.55 236.162 50.3583 235.629 50.125C235.095 49.875 234.587 49.5667 234.104 49.2C233.62 48.8167 233.22 48.35 232.904 47.8C232.604 47.25 232.454 46.575 232.454 45.775C232.454 44.9083 232.67 44.1333 233.104 43.45C233.537 42.7667 234.137 42.2333 234.904 41.85C235.67 41.45 236.545 41.25 237.529 41.25C238.479 41.25 239.304 41.4333 240.004 41.8C240.72 42.15 241.329 42.6083 241.829 43.175C242.329 43.725 242.72 44.3083 243.004 44.925L241.179 45.975C240.962 45.5417 240.687 45.1167 240.354 44.7C240.02 44.2833 239.612 43.9417 239.129 43.675C238.662 43.4083 238.087 43.275 237.404 43.275C236.454 43.275 235.762 43.5083 235.329 43.975C234.895 44.425 234.679 44.9333 234.679 45.5C234.679 45.9833 234.804 46.4333 235.054 46.85C235.304 47.25 235.72 47.6333 236.304 48C236.904 48.35 237.712 48.7 238.729 49.05C239.195 49.2167 239.687 49.4333 240.204 49.7C240.72 49.9667 241.195 50.3083 241.629 50.725C242.079 51.125 242.445 51.6167 242.729 52.2C243.012 52.7667 243.154 53.45 243.154 54.25C243.154 55.0167 243.004 55.7083 242.704 56.325C242.42 56.9417 242.02 57.4667 241.504 57.9C241.004 58.3333 240.429 58.6667 239.779 58.9C239.145 59.1333 238.479 59.25 237.779 59.25C236.829 59.25 235.945 59.05 235.129 58.65C234.329 58.2333 233.62 57.6917 233.004 57.025C232.404 56.3417 231.912 55.6167 231.529 54.85L233.229 53.7ZM249.7 53.75L250.45 51.75H258.2L258.95 53.75H249.7ZM254.275 45.45L251.325 52.4L251.125 52.85L248.525 59H246.15L254.275 40.625L262.4 59H260.025L257.475 53L257.275 52.5L254.275 45.45ZM266.929 53.7C267.329 54.4 267.745 55.0167 268.179 55.55C268.629 56.0833 269.129 56.5 269.679 56.8C270.229 57.1 270.854 57.25 271.554 57.25C272.487 57.25 273.237 56.9917 273.804 56.475C274.37 55.9583 274.654 55.3 274.654 54.5C274.654 53.7167 274.47 53.0917 274.104 52.625C273.737 52.1583 273.254 51.7833 272.654 51.5C272.07 51.2 271.445 50.9333 270.779 50.7C270.345 50.55 269.862 50.3583 269.329 50.125C268.795 49.875 268.287 49.5667 267.804 49.2C267.32 48.8167 266.92 48.35 266.604 47.8C266.304 47.25 266.154 46.575 266.154 45.775C266.154 44.9083 266.37 44.1333 266.804 43.45C267.237 42.7667 267.837 42.2333 268.604 41.85C269.37 41.45 270.245 41.25 271.229 41.25C272.179 41.25 273.004 41.4333 273.704 41.8C274.42 42.15 275.029 42.6083 275.529 43.175C276.029 43.725 276.42 44.3083 276.704 44.925L274.879 45.975C274.662 45.5417 274.387 45.1167 274.054 44.7C273.72 44.2833 273.312 43.9417 272.829 43.675C272.362 43.4083 271.787 43.275 271.104 43.275C270.154 43.275 269.462 43.5083 269.029 43.975C268.595 44.425 268.379 44.9333 268.379 45.5C268.379 45.9833 268.504 46.4333 268.754 46.85C269.004 47.25 269.42 47.6333 270.004 48C270.604 48.35 271.412 48.7 272.429 49.05C272.895 49.2167 273.387 49.4333 273.904 49.7C274.42 49.9667 274.895 50.3083 275.329 50.725C275.779 51.125 276.145 51.6167 276.429 52.2C276.712 52.7667 276.854 53.45 276.854 54.25C276.854 55.0167 276.704 55.7083 276.404 56.325C276.12 56.9417 275.72 57.4667 275.204 57.9C274.704 58.3333 274.129 58.6667 273.479 58.9C272.845 59.1333 272.179 59.25 271.479 59.25C270.529 59.25 269.645 59.05 268.829 58.65C268.029 58.2333 267.32 57.6917 266.704 57.025C266.104 56.3417 265.612 55.6167 265.229 54.85L266.929 53.7ZM282.375 53.7C282.775 54.4 283.192 55.0167 283.625 55.55C284.075 56.0833 284.575 56.5 285.125 56.8C285.675 57.1 286.3 57.25 287 57.25C287.933 57.25 288.683 56.9917 289.25 56.475C289.817 55.9583 290.1 55.3 290.1 54.5C290.1 53.7167 289.917 53.0917 289.55 52.625C289.183 52.1583 288.7 51.7833 288.1 51.5C287.517 51.2 286.892 50.9333 286.225 50.7C285.792 50.55 285.308 50.3583 284.775 50.125C284.242 49.875 283.733 49.5667 283.25 49.2C282.767 48.8167 282.367 48.35 282.05 47.8C281.75 47.25 281.6 46.575 281.6 45.775C281.6 44.9083 281.817 44.1333 282.25 43.45C282.683 42.7667 283.283 42.2333 284.05 41.85C284.817 41.45 285.692 41.25 286.675 41.25C287.625 41.25 288.45 41.4333 289.15 41.8C289.867 42.15 290.475 42.6083 290.975 43.175C291.475 43.725 291.867 44.3083 292.15 44.925L290.325 45.975C290.108 45.5417 289.833 45.1167 289.5 44.7C289.167 44.2833 288.758 43.9417 288.275 43.675C287.808 43.4083 287.233 43.275 286.55 43.275C285.6 43.275 284.908 43.5083 284.475 43.975C284.042 44.425 283.825 44.9333 283.825 45.5C283.825 45.9833 283.95 46.4333 284.2 46.85C284.45 47.25 284.867 47.6333 285.45 48C286.05 48.35 286.858 48.7 287.875 49.05C288.342 49.2167 288.833 49.4333 289.35 49.7C289.867 49.9667 290.342 50.3083 290.775 50.725C291.225 51.125 291.592 51.6167 291.875 52.2C292.158 52.7667 292.3 53.45 292.3 54.25C292.3 55.0167 292.15 55.7083 291.85 56.325C291.567 56.9417 291.167 57.4667 290.65 57.9C290.15 58.3333 289.575 58.6667 288.925 58.9C288.292 59.1333 287.625 59.25 286.925 59.25C285.975 59.25 285.092 59.05 284.275 58.65C283.475 58.2333 282.767 57.6917 282.15 57.025C281.55 56.3417 281.058 55.6167 280.675 54.85L282.375 53.7Z" fill="#EC407A"/>
<path d="M221.652 10.812L221.904 11.616L219.648 12.228L219.456 11.652L221.652 10.812ZM221.268 13.584L220.584 14.076L219.312 12.12L219.792 11.76L221.268 13.584ZM218.52 14.076L217.836 13.584L219.312 11.76L219.792 12.12L218.52 14.076ZM217.2 11.616L217.452 10.812L219.648 11.652L219.456 12.228L217.2 11.616ZM219.132 9.6H219.972L219.852 11.94H219.252L219.132 9.6ZM230.515 10.08V12.12C230.515 12.384 230.503 12.664 230.479 12.96C230.463 13.256 230.411 13.532 230.323 13.788C230.243 14.036 230.111 14.24 229.927 14.4C229.743 14.56 229.487 14.64 229.159 14.64V14.4C229.487 14.4 229.743 14.48 229.927 14.64C230.111 14.8 230.243 15.008 230.323 15.264C230.411 15.512 230.463 15.784 230.479 16.08C230.503 16.376 230.515 16.656 230.515 16.92V18.96C230.515 19.112 230.567 19.248 230.671 19.368C230.775 19.496 230.915 19.56 231.091 19.56H231.511V20.4H230.791C230.615 20.4 230.431 20.34 230.239 20.22C230.047 20.108 229.883 19.928 229.747 19.68C229.619 19.432 229.555 19.112 229.555 18.72V16.2C229.555 15.744 229.503 15.424 229.399 15.24C229.303 15.056 229.163 14.936 228.979 14.88V14.16C229.163 14.096 229.303 13.976 229.399 13.8C229.503 13.616 229.555 13.296 229.555 12.84V10.32C229.555 9.92 229.619 9.6 229.747 9.36C229.883 9.112 230.047 8.932 230.239 8.82C230.431 8.7 230.615 8.64 230.791 8.64H231.511V9.48H231.091C230.915 9.48 230.775 9.54 230.671 9.66C230.567 9.78 230.515 9.92 230.515 10.08Z" fill="#EC407A"/>
<path d="M217.704 91.96V89.92C217.704 89.656 217.712 89.376 217.728 89.08C217.752 88.784 217.804 88.512 217.884 88.264C217.972 88.008 218.108 87.8 218.292 87.64C218.476 87.48 218.732 87.4 219.06 87.4V87.64C218.732 87.64 218.476 87.56 218.292 87.4C218.108 87.24 217.972 87.036 217.884 86.788C217.804 86.532 217.752 86.256 217.728 85.96C217.712 85.664 217.704 85.384 217.704 85.12V83.08C217.704 82.92 217.652 82.78 217.548 82.66C217.452 82.54 217.312 82.48 217.128 82.48H216.708V81.64H217.428C217.604 81.64 217.788 81.7 217.98 81.82C218.172 81.932 218.332 82.112 218.46 82.36C218.596 82.6 218.664 82.92 218.664 83.32V85.84C218.664 86.296 218.716 86.616 218.82 86.8C218.924 86.976 219.064 87.096 219.24 87.16V87.88C219.064 87.936 218.924 88.056 218.82 88.24C218.716 88.424 218.664 88.744 218.664 89.2V91.72C218.664 92.112 218.596 92.432 218.46 92.68C218.332 92.928 218.172 93.108 217.98 93.22C217.788 93.34 217.604 93.4 217.428 93.4H216.708V92.56H217.128C217.312 92.56 217.452 92.496 217.548 92.368C217.652 92.248 217.704 92.112 217.704 91.96Z" fill="#EC407A"/>
<path d="M355.599 61.6C355.782 61.8833 356.049 62.1 356.399 62.25C356.732 62.4167 357.124 62.5 357.574 62.5C357.957 62.5 358.332 62.325 358.699 61.975C359.082 61.6417 359.274 61.0667 359.274 60.25V41.5H361.274V60.5C361.274 61.1833 361.182 61.775 360.999 62.275C360.832 62.775 360.582 63.1917 360.249 63.525C359.916 63.8583 359.507 64.1 359.024 64.25C358.557 64.4167 358.032 64.5 357.449 64.5C357.016 64.5 356.599 64.425 356.199 64.275C355.782 64.1417 355.432 63.975 355.149 63.775C354.849 63.5917 354.632 63.4167 354.499 63.25L355.599 61.6ZM367.68 53.7C368.08 54.4 368.496 55.0167 368.93 55.55C369.38 56.0833 369.88 56.5 370.43 56.8C370.98 57.1 371.605 57.25 372.305 57.25C373.238 57.25 373.988 56.9917 374.555 56.475C375.121 55.9583 375.405 55.3 375.405 54.5C375.405 53.7167 375.221 53.0917 374.855 52.625C374.488 52.1583 374.005 51.7833 373.405 51.5C372.821 51.2 372.196 50.9333 371.53 50.7C371.096 50.55 370.613 50.3583 370.08 50.125C369.546 49.875 369.038 49.5667 368.555 49.2C368.071 48.8167 367.671 48.35 367.355 47.8C367.055 47.25 366.905 46.575 366.905 45.775C366.905 44.9083 367.121 44.1333 367.555 43.45C367.988 42.7667 368.588 42.2333 369.355 41.85C370.121 41.45 370.996 41.25 371.98 41.25C372.93 41.25 373.755 41.4333 374.455 41.8C375.171 42.15 375.78 42.6083 376.28 43.175C376.78 43.725 377.171 44.3083 377.455 44.925L375.63 45.975C375.413 45.5417 375.138 45.1167 374.805 44.7C374.471 44.2833 374.063 43.9417 373.58 43.675C373.113 43.4083 372.538 43.275 371.855 43.275C370.905 43.275 370.213 43.5083 369.78 43.975C369.346 44.425 369.13 44.9333 369.13 45.5C369.13 45.9833 369.255 46.4333 369.505 46.85C369.755 47.25 370.171 47.6333 370.755 48C371.355 48.35 372.163 48.7 373.18 49.05C373.646 49.2167 374.138 49.4333 374.655 49.7C375.171 49.9667 375.646 50.3083 376.08 50.725C376.53 51.125 376.896 51.6167 377.18 52.2C377.463 52.7667 377.605 53.45 377.605 54.25C377.605 55.0167 377.455 55.7083 377.155 56.325C376.871 56.9417 376.471 57.4667 375.955 57.9C375.455 58.3333 374.88 58.6667 374.23 58.9C373.596 59.1333 372.93 59.25 372.23 59.25C371.28 59.25 370.396 59.05 369.58 58.65C368.78 58.2333 368.071 57.6917 367.455 57.025C366.855 56.3417 366.363 55.6167 365.98 54.85L367.68 53.7Z" fill="#F7DF1E"/>
<path d="M323.332 15.24C323.332 15.624 323.412 15.964 323.572 16.26C323.74 16.556 323.964 16.792 324.244 16.968C324.532 17.136 324.856 17.22 325.216 17.22C325.512 17.22 325.788 17.176 326.044 17.088C326.308 16.992 326.536 16.868 326.728 16.716C326.92 16.556 327.056 16.388 327.136 16.212V17.412C326.944 17.636 326.668 17.812 326.308 17.94C325.956 18.06 325.592 18.12 325.216 18.12C324.68 18.12 324.196 17.996 323.764 17.748C323.332 17.5 322.988 17.16 322.732 16.728C322.484 16.288 322.36 15.792 322.36 15.24C322.36 14.68 322.484 14.184 322.732 13.752C322.988 13.32 323.332 12.98 323.764 12.732C324.196 12.484 324.68 12.36 325.216 12.36C325.592 12.36 325.956 12.424 326.308 12.552C326.668 12.672 326.944 12.844 327.136 13.068V14.268C327.056 14.084 326.92 13.916 326.728 13.764C326.536 13.612 326.308 13.492 326.044 13.404C325.788 13.308 325.512 13.26 325.216 13.26C324.856 13.26 324.532 13.344 324.244 13.512C323.964 13.68 323.74 13.916 323.572 14.22C323.412 14.516 323.332 14.856 323.332 15.24ZM328.99 15.24C328.99 14.68 329.114 14.184 329.362 13.752C329.618 13.32 329.962 12.98 330.394 12.732C330.826 12.484 331.31 12.36 331.846 12.36C332.39 12.36 332.874 12.484 333.298 12.732C333.73 12.98 334.07 13.32 334.318 13.752C334.574 14.184 334.702 14.68 334.702 15.24C334.702 15.792 334.574 16.288 334.318 16.728C334.07 17.16 333.73 17.5 333.298 17.748C332.874 17.996 332.39 18.12 331.846 18.12C331.31 18.12 330.826 17.996 330.394 17.748C329.962 17.5 329.618 17.16 329.362 16.728C329.114 16.288 328.99 15.792 328.99 15.24ZM329.962 15.24C329.962 15.624 330.042 15.964 330.202 16.26C330.37 16.556 330.594 16.792 330.874 16.968C331.162 17.136 331.486 17.22 331.846 17.22C332.206 17.22 332.526 17.136 332.806 16.968C333.094 16.792 333.318 16.556 333.478 16.26C333.646 15.964 333.73 15.624 333.73 15.24C333.73 14.856 333.646 14.516 333.478 14.22C333.318 13.916 333.094 13.68 332.806 13.512C332.526 13.344 332.206 13.26 331.846 13.26C331.486 13.26 331.162 13.344 330.874 13.512C330.594 13.68 330.37 13.916 330.202 14.22C330.042 14.516 329.962 14.856 329.962 15.24ZM340.401 14.64C340.401 14.184 340.301 13.84 340.101 13.608C339.901 13.376 339.609 13.26 339.225 13.26C338.945 13.26 338.697 13.32 338.481 13.44C338.273 13.552 338.109 13.712 337.989 13.92C337.877 14.128 337.821 14.368 337.821 14.64V18H336.861V12.48H337.821V13.344C338.005 13.008 338.233 12.76 338.505 12.6C338.785 12.44 339.105 12.36 339.465 12.36C340.049 12.36 340.509 12.556 340.845 12.948C341.189 13.332 341.361 13.856 341.361 14.52V18H340.401V14.64ZM344.234 16.308C344.346 16.476 344.474 16.632 344.618 16.776C344.762 16.92 344.926 17.036 345.11 17.124C345.302 17.204 345.51 17.244 345.734 17.244C346.006 17.244 346.218 17.184 346.37 17.064C346.53 16.936 346.61 16.764 346.61 16.548C346.61 16.356 346.546 16.196 346.418 16.068C346.298 15.932 346.142 15.82 345.95 15.732C345.758 15.636 345.554 15.548 345.338 15.468C345.098 15.372 344.854 15.26 344.606 15.132C344.366 14.996 344.162 14.824 343.994 14.616C343.834 14.4 343.754 14.132 343.754 13.812C343.754 13.484 343.838 13.212 344.006 12.996C344.182 12.78 344.406 12.62 344.678 12.516C344.958 12.412 345.246 12.36 345.542 12.36C345.838 12.36 346.114 12.408 346.37 12.504C346.634 12.6 346.866 12.728 347.066 12.888C347.266 13.048 347.422 13.232 347.534 13.44L346.766 13.932C346.614 13.724 346.422 13.552 346.19 13.416C345.966 13.28 345.71 13.212 345.422 13.212C345.222 13.212 345.05 13.256 344.906 13.344C344.762 13.432 344.69 13.568 344.69 13.752C344.69 13.896 344.746 14.024 344.858 14.136C344.97 14.248 345.114 14.348 345.29 14.436C345.466 14.524 345.65 14.608 345.842 14.688C346.162 14.816 346.454 14.956 346.718 15.108C346.982 15.252 347.19 15.428 347.342 15.636C347.502 15.844 347.582 16.112 347.582 16.44C347.582 16.92 347.406 17.32 347.054 17.64C346.71 17.96 346.254 18.12 345.686 18.12C345.318 18.12 344.986 18.056 344.69 17.928C344.394 17.792 344.142 17.62 343.934 17.412C343.734 17.204 343.582 16.992 343.478 16.776L344.234 16.308ZM349.206 15.24C349.206 14.68 349.33 14.184 349.578 13.752C349.834 13.32 350.178 12.98 350.61 12.732C351.042 12.484 351.526 12.36 352.062 12.36C352.606 12.36 353.09 12.484 353.514 12.732C353.946 12.98 354.286 13.32 354.534 13.752C354.79 14.184 354.918 14.68 354.918 15.24C354.918 15.792 354.79 16.288 354.534 16.728C354.286 17.16 353.946 17.5 353.514 17.748C353.09 17.996 352.606 18.12 352.062 18.12C351.526 18.12 351.042 17.996 350.61 17.748C350.178 17.5 349.834 17.16 349.578 16.728C349.33 16.288 349.206 15.792 349.206 15.24ZM350.178 15.24C350.178 15.624 350.258 15.964 350.418 16.26C350.586 16.556 350.81 16.792 351.09 16.968C351.378 17.136 351.702 17.22 352.062 17.22C352.422 17.22 352.742 17.136 353.022 16.968C353.31 16.792 353.534 16.556 353.694 16.26C353.862 15.964 353.946 15.624 353.946 15.24C353.946 14.856 353.862 14.516 353.694 14.22C353.534 13.916 353.31 13.68 353.022 13.512C352.742 13.344 352.422 13.26 352.062 13.26C351.702 13.26 351.378 13.344 351.09 13.512C350.81 13.68 350.586 13.916 350.418 14.22C350.258 14.516 350.178 14.856 350.178 15.24ZM357.077 8.64H358.037V18H357.077V8.64ZM362.818 18.12C362.306 18.12 361.85 18 361.45 17.76C361.058 17.512 360.75 17.172 360.526 16.74C360.31 16.308 360.202 15.808 360.202 15.24C360.202 14.664 360.314 14.16 360.538 13.728C360.77 13.296 361.09 12.96 361.498 12.72C361.914 12.48 362.394 12.36 362.938 12.36C363.482 12.36 363.946 12.476 364.33 12.708C364.722 12.932 365.022 13.256 365.23 13.68C365.438 14.104 365.542 14.608 365.542 15.192C365.542 15.248 365.538 15.308 365.53 15.372C365.53 15.428 365.53 15.464 365.53 15.48H360.814V14.664H364.774L364.39 15.216C364.414 15.176 364.438 15.116 364.462 15.036C364.486 14.948 364.498 14.876 364.498 14.82C364.498 14.492 364.43 14.208 364.294 13.968C364.166 13.728 363.986 13.54 363.754 13.404C363.522 13.268 363.25 13.2 362.938 13.2C362.57 13.2 362.254 13.28 361.99 13.44C361.734 13.592 361.534 13.816 361.39 14.112C361.254 14.4 361.182 14.756 361.174 15.18C361.174 15.612 361.242 15.98 361.378 16.284C361.514 16.588 361.714 16.82 361.978 16.98C362.242 17.14 362.562 17.22 362.938 17.22C363.314 17.22 363.646 17.14 363.934 16.98C364.222 16.812 364.466 16.56 364.666 16.224L365.446 16.716C365.158 17.18 364.794 17.532 364.354 17.772C363.922 18.004 363.41 18.12 362.818 18.12ZM367.34 17.52C367.34 17.336 367.404 17.18 367.532 17.052C367.668 16.924 367.824 16.86 368 16.86C368.184 16.86 368.34 16.924 368.468 17.052C368.596 17.18 368.66 17.336 368.66 17.52C368.66 17.696 368.596 17.852 368.468 17.988C368.34 18.116 368.184 18.18 368 18.18C367.824 18.18 367.668 18.116 367.532 17.988C367.404 17.852 367.34 17.696 367.34 17.52ZM371.538 8.64H372.498V18H371.538V8.64ZM374.664 15.24C374.664 14.68 374.788 14.184 375.036 13.752C375.292 13.32 375.636 12.98 376.068 12.732C376.5 12.484 376.984 12.36 377.52 12.36C378.064 12.36 378.548 12.484 378.972 12.732C379.404 12.98 379.744 13.32 379.992 13.752C380.248 14.184 380.376 14.68 380.376 15.24C380.376 15.792 380.248 16.288 379.992 16.728C379.744 17.16 379.404 17.5 378.972 17.748C378.548 17.996 378.064 18.12 377.52 18.12C376.984 18.12 376.5 17.996 376.068 17.748C375.636 17.5 375.292 17.16 375.036 16.728C374.788 16.288 374.664 15.792 374.664 15.24ZM375.636 15.24C375.636 15.624 375.716 15.964 375.876 16.26C376.044 16.556 376.268 16.792 376.548 16.968C376.836 17.136 377.16 17.22 377.52 17.22C377.88 17.22 378.2 17.136 378.48 16.968C378.768 16.792 378.992 16.556 379.152 16.26C379.32 15.964 379.404 15.624 379.404 15.24C379.404 14.856 379.32 14.516 379.152 14.22C378.992 13.916 378.768 13.68 378.48 13.512C378.2 13.344 377.88 13.26 377.52 13.26C377.16 13.26 376.836 13.344 376.548 13.512C376.268 13.68 376.044 13.916 375.876 14.22C375.716 14.516 375.636 14.856 375.636 15.24ZM382.162 18.36H383.134C383.134 18.624 383.206 18.868 383.35 19.092C383.494 19.324 383.698 19.508 383.962 19.644C384.226 19.788 384.538 19.86 384.898 19.86C385.178 19.86 385.454 19.792 385.726 19.656C385.998 19.52 386.222 19.304 386.398 19.008C386.582 18.72 386.674 18.344 386.674 17.88V12.48H387.634V17.88C387.634 18.512 387.502 19.04 387.238 19.464C386.974 19.896 386.634 20.22 386.218 20.436C385.802 20.652 385.362 20.76 384.898 20.76C384.362 20.76 383.886 20.66 383.47 20.46C383.062 20.26 382.742 19.976 382.51 19.608C382.278 19.248 382.162 18.832 382.162 18.36ZM382.054 15.24C382.054 14.64 382.178 14.128 382.426 13.704C382.674 13.272 383.006 12.94 383.422 12.708C383.838 12.476 384.294 12.36 384.79 12.36C385.254 12.36 385.658 12.476 386.002 12.708C386.346 12.94 386.614 13.272 386.806 13.704C387.006 14.128 387.106 14.64 387.106 15.24C387.106 15.832 387.006 16.344 386.806 16.776C386.614 17.208 386.346 17.54 386.002 17.772C385.658 18.004 385.254 18.12 384.79 18.12C384.294 18.12 383.838 18.004 383.422 17.772C383.006 17.54 382.674 17.208 382.426 16.776C382.178 16.344 382.054 15.832 382.054 15.24ZM383.026 15.24C383.026 15.664 383.11 16.024 383.278 16.32C383.454 16.616 383.686 16.84 383.974 16.992C384.262 17.144 384.574 17.22 384.91 17.22C385.19 17.22 385.466 17.144 385.738 16.992C386.01 16.84 386.234 16.616 386.41 16.32C386.586 16.024 386.674 15.664 386.674 15.24C386.674 14.92 386.622 14.64 386.518 14.4C386.414 14.152 386.274 13.944 386.098 13.776C385.93 13.608 385.742 13.48 385.534 13.392C385.326 13.304 385.118 13.26 384.91 13.26C384.574 13.26 384.262 13.336 383.974 13.488C383.686 13.64 383.454 13.864 383.278 14.16C383.11 14.456 383.026 14.816 383.026 15.24Z" fill="#F7DF1E"/>
<path d="M324.46 81.64H325.36C324.944 82.536 324.64 83.484 324.448 84.484C324.256 85.484 324.16 86.496 324.16 87.52C324.16 88.536 324.256 89.544 324.448 90.544C324.64 91.544 324.944 92.496 325.36 93.4H324.46C323.98 92.496 323.628 91.544 323.404 90.544C323.188 89.544 323.08 88.536 323.08 87.52C323.08 86.496 323.188 85.484 323.404 84.484C323.628 83.484 323.98 82.536 324.46 81.64ZM328.535 85.36H327.395L328.595 82.6H329.255L328.535 85.36ZM332.56 81.64V91H331.6V81.64H332.56ZM335.14 87.64C335.14 87.184 335.04 86.84 334.84 86.608C334.648 86.376 334.356 86.26 333.964 86.26C333.684 86.26 333.436 86.32 333.22 86.44C333.012 86.56 332.848 86.724 332.728 86.932C332.616 87.14 332.56 87.376 332.56 87.64H332.248C332.248 87.2 332.332 86.812 332.5 86.476C332.668 86.132 332.896 85.86 333.184 85.66C333.48 85.46 333.82 85.36 334.204 85.36C334.588 85.36 334.92 85.44 335.2 85.6C335.488 85.76 335.708 86 335.86 86.32C336.02 86.64 336.1 87.04 336.1 87.52V91H335.14V87.64ZM340.88 91.12C340.368 91.12 339.912 91 339.512 90.76C339.12 90.512 338.812 90.172 338.588 89.74C338.372 89.308 338.264 88.808 338.264 88.24C338.264 87.664 338.376 87.16 338.6 86.728C338.832 86.296 339.152 85.96 339.56 85.72C339.976 85.48 340.456 85.36 341 85.36C341.544 85.36 342.008 85.476 342.392 85.708C342.784 85.932 343.084 86.256 343.292 86.68C343.5 87.104 343.604 87.608 343.604 88.192C343.604 88.248 343.6 88.308 343.592 88.372C343.592 88.428 343.592 88.464 343.592 88.48H338.876V87.664H342.836L342.452 88.216C342.476 88.176 342.5 88.116 342.524 88.036C342.548 87.948 342.56 87.876 342.56 87.82C342.56 87.492 342.492 87.208 342.356 86.968C342.228 86.728 342.048 86.54 341.816 86.404C341.584 86.268 341.312 86.2 341 86.2C340.632 86.2 340.316 86.28 340.052 86.44C339.796 86.592 339.596 86.816 339.452 87.112C339.316 87.4 339.244 87.756 339.236 88.18C339.236 88.612 339.304 88.98 339.44 89.284C339.576 89.588 339.776 89.82 340.04 89.98C340.304 90.14 340.624 90.22 341 90.22C341.376 90.22 341.708 90.14 341.996 89.98C342.284 89.812 342.528 89.56 342.728 89.224L343.508 89.716C343.22 90.18 342.856 90.532 342.416 90.772C341.984 91.004 341.472 91.12 340.88 91.12ZM345.76 81.64H346.72V91H345.76V81.64ZM349.366 81.64H350.326V91H349.366V81.64ZM352.491 88.24C352.491 87.68 352.615 87.184 352.863 86.752C353.119 86.32 353.463 85.98 353.895 85.732C354.327 85.484 354.811 85.36 355.347 85.36C355.891 85.36 356.375 85.484 356.799 85.732C357.231 85.98 357.571 86.32 357.819 86.752C358.075 87.184 358.203 87.68 358.203 88.24C358.203 88.792 358.075 89.288 357.819 89.728C357.571 90.16 357.231 90.5 356.799 90.748C356.375 90.996 355.891 91.12 355.347 91.12C354.811 91.12 354.327 90.996 353.895 90.748C353.463 90.5 353.119 90.16 352.863 89.728C352.615 89.288 352.491 88.792 352.491 88.24ZM353.463 88.24C353.463 88.624 353.543 88.964 353.703 89.26C353.871 89.556 354.095 89.792 354.375 89.968C354.663 90.136 354.987 90.22 355.347 90.22C355.707 90.22 356.027 90.136 356.307 89.968C356.595 89.792 356.819 89.556 356.979 89.26C357.147 88.964 357.231 88.624 357.231 88.24C357.231 87.856 357.147 87.516 356.979 87.22C356.819 86.916 356.595 86.68 356.307 86.512C356.027 86.344 355.707 86.26 355.347 86.26C354.987 86.26 354.663 86.344 354.375 86.512C354.095 86.68 353.871 86.916 353.703 87.22C353.543 87.516 353.463 87.856 353.463 88.24ZM364.644 83.2C364.644 83.016 364.708 82.864 364.836 82.744C364.964 82.616 365.116 82.552 365.292 82.552C365.476 82.552 365.628 82.616 365.748 82.744C365.876 82.864 365.94 83.016 365.94 83.2C365.94 83.376 365.876 83.528 365.748 83.656C365.628 83.784 365.476 83.848 365.292 83.848C365.116 83.848 364.964 83.784 364.836 83.656C364.708 83.528 364.644 83.376 364.644 83.2ZM363.696 92.368C363.76 92.464 363.84 92.54 363.936 92.596C364.04 92.652 364.156 92.68 364.284 92.68C364.42 92.68 364.528 92.644 364.608 92.572C364.696 92.5 364.76 92.384 364.8 92.224C364.84 92.064 364.86 91.856 364.86 91.6V85.48H365.82V91.72C365.82 92.12 365.756 92.464 365.628 92.752C365.508 93.04 365.328 93.26 365.088 93.412C364.848 93.564 364.56 93.64 364.224 93.64C364.064 93.64 363.92 93.62 363.792 93.58C363.664 93.548 363.548 93.496 363.444 93.424C363.34 93.352 363.248 93.264 363.168 93.16L363.696 92.368ZM368.868 89.308C368.98 89.476 369.108 89.632 369.252 89.776C369.396 89.92 369.56 90.036 369.744 90.124C369.936 90.204 370.144 90.244 370.368 90.244C370.64 90.244 370.852 90.184 371.004 90.064C371.164 89.936 371.244 89.764 371.244 89.548C371.244 89.356 371.18 89.196 371.052 89.068C370.932 88.932 370.776 88.82 370.584 88.732C370.392 88.636 370.188 88.548 369.972 88.468C369.732 88.372 369.488 88.26 369.24 88.132C369 87.996 368.796 87.824 368.628 87.616C368.468 87.4 368.388 87.132 368.388 86.812C368.388 86.484 368.472 86.212 368.64 85.996C368.816 85.78 369.04 85.62 369.312 85.516C369.592 85.412 369.88 85.36 370.176 85.36C370.472 85.36 370.748 85.408 371.004 85.504C371.268 85.6 371.5 85.728 371.7 85.888C371.9 86.048 372.056 86.232 372.168 86.44L371.4 86.932C371.248 86.724 371.056 86.552 370.824 86.416C370.6 86.28 370.344 86.212 370.056 86.212C369.856 86.212 369.684 86.256 369.54 86.344C369.396 86.432 369.324 86.568 369.324 86.752C369.324 86.896 369.38 87.024 369.492 87.136C369.604 87.248 369.748 87.348 369.924 87.436C370.1 87.524 370.284 87.608 370.476 87.688C370.796 87.816 371.088 87.956 371.352 88.108C371.616 88.252 371.824 88.428 371.976 88.636C372.136 88.844 372.216 89.112 372.216 89.44C372.216 89.92 372.04 90.32 371.688 90.64C371.344 90.96 370.888 91.12 370.32 91.12C369.952 91.12 369.62 91.056 369.324 90.928C369.028 90.792 368.776 90.62 368.568 90.412C368.368 90.204 368.216 89.992 368.112 89.776L368.868 89.308ZM374.376 82.6H375.516L374.316 85.36H373.656L374.376 82.6ZM378.461 93.4H377.561C377.985 92.496 378.289 91.544 378.473 90.544C378.665 89.544 378.761 88.536 378.761 87.52C378.761 86.496 378.665 85.484 378.473 84.484C378.289 83.484 377.985 82.536 377.561 81.64H378.461C378.941 82.536 379.289 83.484 379.505 84.484C379.729 85.484 379.841 86.496 379.841 87.52C379.841 88.536 379.729 89.544 379.505 90.544C379.289 91.544 378.941 92.496 378.461 93.4ZM383.256 85.96C383.256 85.776 383.32 85.62 383.448 85.492C383.584 85.364 383.74 85.3 383.916 85.3C384.1 85.3 384.256 85.364 384.384 85.492C384.512 85.62 384.576 85.776 384.576 85.96C384.576 86.136 384.512 86.292 384.384 86.428C384.256 86.556 384.1 86.62 383.916 86.62C383.74 86.62 383.584 86.556 383.448 86.428C383.32 86.292 383.256 86.136 383.256 85.96ZM383.532 89.68L384.492 90.04L383.172 93.04L382.476 92.788L383.532 89.68Z" fill="#F7DF1E"/>
<path d="M451.562 50.25C451.562 51.6 451.862 52.7917 452.462 53.825C453.079 54.8583 453.879 55.6667 454.862 56.25C455.845 56.8333 456.912 57.125 458.062 57.125C458.895 57.125 459.654 57.0167 460.337 56.8C461.037 56.5833 461.67 56.2833 462.237 55.9C462.804 55.5 463.287 55.0417 463.687 54.525V57.325C462.954 57.975 462.154 58.4583 461.287 58.775C460.42 59.0917 459.345 59.25 458.062 59.25C456.845 59.25 455.704 59.0333 454.637 58.6C453.587 58.15 452.662 57.525 451.862 56.725C451.062 55.9083 450.437 54.95 449.987 53.85C449.537 52.75 449.312 51.55 449.312 50.25C449.312 48.95 449.537 47.75 449.987 46.65C450.437 45.55 451.062 44.6 451.862 43.8C452.662 42.9833 453.587 42.3583 454.637 41.925C455.704 41.475 456.845 41.25 458.062 41.25C459.345 41.25 460.42 41.4083 461.287 41.725C462.154 42.0417 462.954 42.525 463.687 43.175V45.975C463.287 45.4583 462.804 45.0083 462.237 44.625C461.67 44.225 461.037 43.9167 460.337 43.7C459.654 43.4833 458.895 43.375 458.062 43.375C456.912 43.375 455.845 43.6667 454.862 44.25C453.879 44.8333 453.079 45.6417 452.462 46.675C451.862 47.6917 451.562 48.8833 451.562 50.25ZM468.801 53.625V51.625H480.926V53.625H468.801ZM473.801 46.5H475.926V58.75H473.801V46.5ZM485.932 53.625V51.625H498.057V53.625H485.932ZM490.932 46.5H493.057V58.75H490.932V46.5Z" fill="#659AD2"/>
<path d="M428.9 10.2C428.9 10.016 428.964 9.86 429.092 9.732C429.228 9.604 429.384 9.54 429.56 9.54C429.744 9.54 429.9 9.604 430.028 9.732C430.156 9.86 430.22 10.016 430.22 10.2C430.22 10.376 430.156 10.532 430.028 10.668C429.9 10.796 429.744 10.86 429.56 10.86C429.384 10.86 429.228 10.796 429.092 10.668C428.964 10.532 428.9 10.376 428.9 10.2ZM429.08 12.48H430.04V18H429.08V12.48ZM436.397 14.64C436.397 14.184 436.297 13.84 436.097 13.608C435.897 13.376 435.605 13.26 435.221 13.26C434.941 13.26 434.693 13.32 434.477 13.44C434.269 13.552 434.105 13.712 433.985 13.92C433.873 14.128 433.817 14.368 433.817 14.64V18H432.857V12.48H433.817V13.344C434.001 13.008 434.229 12.76 434.501 12.6C434.781 12.44 435.101 12.36 435.461 12.36C436.045 12.36 436.505 12.556 436.841 12.948C437.185 13.332 437.357 13.856 437.357 14.52V18H436.397V14.64ZM439.162 12.48H441.922V13.38H439.162V12.48ZM440.062 10.56H441.022V18H440.062V10.56ZM455.722 14.52V18H454.762V14.64C454.762 14.168 454.674 13.82 454.498 13.596C454.33 13.372 454.066 13.26 453.706 13.26C453.442 13.26 453.214 13.316 453.022 13.428C452.83 13.532 452.682 13.688 452.578 13.896C452.474 14.104 452.422 14.352 452.422 14.64V18H451.462V14.64C451.462 14.168 451.374 13.82 451.198 13.596C451.03 13.372 450.766 13.26 450.406 13.26C450.142 13.26 449.914 13.316 449.722 13.428C449.53 13.532 449.382 13.688 449.278 13.896C449.174 14.104 449.122 14.352 449.122 14.64V18H448.162V12.48H449.122V13.284C449.29 12.972 449.498 12.74 449.746 12.588C450.002 12.436 450.302 12.36 450.646 12.36C451.03 12.36 451.358 12.452 451.63 12.636C451.91 12.812 452.114 13.064 452.242 13.392C452.434 13.048 452.674 12.792 452.962 12.624C453.25 12.448 453.578 12.36 453.946 12.36C454.322 12.36 454.642 12.444 454.906 12.612C455.17 12.78 455.37 13.028 455.506 13.356C455.65 13.676 455.722 14.064 455.722 14.52ZM458.798 16.296C458.798 16.504 458.846 16.684 458.942 16.836C459.046 16.988 459.186 17.104 459.362 17.184C459.546 17.256 459.754 17.292 459.986 17.292C460.282 17.292 460.546 17.232 460.778 17.112C461.018 16.992 461.206 16.824 461.342 16.608C461.486 16.384 461.558 16.128 461.558 15.84L461.75 16.56C461.75 16.912 461.642 17.204 461.426 17.436C461.218 17.668 460.958 17.84 460.646 17.952C460.342 18.064 460.038 18.12 459.734 18.12C459.398 18.12 459.082 18.052 458.786 17.916C458.498 17.772 458.266 17.568 458.09 17.304C457.914 17.04 457.826 16.72 457.826 16.344C457.826 15.808 458.014 15.38 458.39 15.06C458.774 14.732 459.306 14.568 459.986 14.568C460.386 14.568 460.718 14.616 460.982 14.712C461.254 14.8 461.47 14.904 461.63 15.024C461.79 15.136 461.898 15.228 461.954 15.3V15.864C461.674 15.672 461.386 15.536 461.09 15.456C460.794 15.368 460.478 15.324 460.142 15.324C459.83 15.324 459.574 15.364 459.374 15.444C459.182 15.524 459.038 15.636 458.942 15.78C458.846 15.924 458.798 16.096 458.798 16.296ZM458.654 13.752L458.186 13.044C458.394 12.892 458.678 12.74 459.038 12.588C459.406 12.436 459.846 12.36 460.358 12.36C460.79 12.36 461.166 12.428 461.486 12.564C461.814 12.692 462.066 12.88 462.242 13.128C462.426 13.376 462.518 13.68 462.518 14.04V18H461.558V14.172C461.558 13.98 461.526 13.824 461.462 13.704C461.398 13.576 461.306 13.476 461.186 13.404C461.074 13.332 460.942 13.28 460.79 13.248C460.638 13.216 460.478 13.2 460.31 13.2C460.038 13.2 459.79 13.232 459.566 13.296C459.35 13.36 459.166 13.436 459.014 13.524C458.862 13.612 458.742 13.688 458.654 13.752ZM464.983 10.2C464.983 10.016 465.047 9.86 465.175 9.732C465.311 9.604 465.467 9.54 465.643 9.54C465.827 9.54 465.983 9.604 466.111 9.732C466.239 9.86 466.303 10.016 466.303 10.2C466.303 10.376 466.239 10.532 466.111 10.668C465.983 10.796 465.827 10.86 465.643 10.86C465.467 10.86 465.311 10.796 465.175 10.668C465.047 10.532 464.983 10.376 464.983 10.2ZM465.163 12.48H466.123V18H465.163V12.48ZM472.48 14.64C472.48 14.184 472.38 13.84 472.18 13.608C471.98 13.376 471.688 13.26 471.304 13.26C471.024 13.26 470.776 13.32 470.56 13.44C470.352 13.552 470.188 13.712 470.068 13.92C469.956 14.128 469.9 14.368 469.9 14.64V18H468.94V12.48H469.9V13.344C470.084 13.008 470.312 12.76 470.584 12.6C470.864 12.44 471.184 12.36 471.544 12.36C472.128 12.36 472.588 12.556 472.924 12.948C473.268 13.332 473.44 13.856 473.44 14.52V18H472.48V14.64ZM477.645 8.64H478.545C478.129 9.536 477.825 10.484 477.633 11.484C477.441 12.484 477.345 13.496 477.345 14.52C477.345 15.536 477.441 16.544 477.633 17.544C477.825 18.544 478.129 19.496 478.545 20.4H477.645C477.165 19.496 476.813 18.544 476.589 17.544C476.373 16.544 476.265 15.536 476.265 14.52C476.265 13.496 476.373 12.484 476.589 11.484C476.813 10.484 477.165 9.536 477.645 8.64ZM481 20.4H480.1C480.524 19.496 480.828 18.544 481.012 17.544C481.204 16.544 481.3 15.536 481.3 14.52C481.3 13.496 481.204 12.484 481.012 11.484C480.828 10.484 480.524 9.536 480.1 8.64H481C481.48 9.536 481.828 10.484 482.044 11.484C482.268 12.484 482.38 13.496 482.38 14.52C482.38 15.536 482.268 16.544 482.044 17.544C481.828 18.544 481.48 19.496 481 20.4ZM490.868 10.08V12.12C490.868 12.384 490.856 12.664 490.832 12.96C490.816 13.256 490.764 13.532 490.676 13.788C490.596 14.036 490.464 14.24 490.28 14.4C490.096 14.56 489.84 14.64 489.512 14.64V14.4C489.84 14.4 490.096 14.48 490.28 14.64C490.464 14.8 490.596 15.008 490.676 15.264C490.764 15.512 490.816 15.784 490.832 16.08C490.856 16.376 490.868 16.656 490.868 16.92V18.96C490.868 19.112 490.92 19.248 491.024 19.368C491.128 19.496 491.268 19.56 491.444 19.56H491.864V20.4H491.144C490.968 20.4 490.784 20.34 490.592 20.22C490.4 20.108 490.236 19.928 490.1 19.68C489.972 19.432 489.908 19.112 489.908 18.72V16.2C489.908 15.744 489.856 15.424 489.752 15.24C489.656 15.056 489.516 14.936 489.332 14.88V14.16C489.516 14.096 489.656 13.976 489.752 13.8C489.856 13.616 489.908 13.296 489.908 12.84V10.32C489.908 9.92 489.972 9.6 490.1 9.36C490.236 9.112 490.4 8.932 490.592 8.82C490.784 8.7 490.968 8.64 491.144 8.64H491.864V9.48H491.444C491.268 9.48 491.128 9.54 491.024 9.66C490.92 9.78 490.868 9.92 490.868 10.08Z" fill="#659AD2"/>
<path d="M429.704 91.96V89.92C429.704 89.656 429.712 89.376 429.728 89.08C429.752 88.784 429.804 88.512 429.884 88.264C429.972 88.008 430.108 87.8 430.292 87.64C430.476 87.48 430.732 87.4 431.06 87.4V87.64C430.732 87.64 430.476 87.56 430.292 87.4C430.108 87.24 429.972 87.036 429.884 86.788C429.804 86.532 429.752 86.256 429.728 85.96C429.712 85.664 429.704 85.384 429.704 85.12V83.08C429.704 82.92 429.652 82.78 429.548 82.66C429.452 82.54 429.312 82.48 429.128 82.48H428.708V81.64H429.428C429.604 81.64 429.788 81.7 429.98 81.82C430.172 81.932 430.332 82.112 430.46 82.36C430.596 82.6 430.664 82.92 430.664 83.32V85.84C430.664 86.296 430.716 86.616 430.82 86.8C430.924 86.976 431.064 87.096 431.24 87.16V87.88C431.064 87.936 430.924 88.056 430.82 88.24C430.716 88.424 430.664 88.744 430.664 89.2V91.72C430.664 92.112 430.596 92.432 430.46 92.68C430.332 92.928 430.172 93.108 429.98 93.22C429.788 93.34 429.604 93.4 429.428 93.4H428.708V92.56H429.128C429.312 92.56 429.452 92.496 429.548 92.368C429.652 92.248 429.704 92.112 429.704 91.96Z" fill="#659AD2"/>
<path d="M566.25 50.25C566.25 51.6 566.55 52.7917 567.15 53.825C567.766 54.8583 568.566 55.6667 569.55 56.25C570.533 56.8333 571.6 57.125 572.75 57.125C573.583 57.125 574.341 57.0167 575.025 56.8C575.725 56.5833 576.358 56.2833 576.925 55.9C577.491 55.5 577.975 55.0417 578.375 54.525V57.325C577.641 57.975 576.841 58.4583 575.975 58.775C575.108 59.0917 574.033 59.25 572.75 59.25C571.533 59.25 570.391 59.0333 569.325 58.6C568.275 58.15 567.35 57.525 566.55 56.725C565.75 55.9083 565.125 54.95 564.675 53.85C564.225 52.75 564 51.55 564 50.25C564 48.95 564.225 47.75 564.675 46.65C565.125 45.55 565.75 44.6 566.55 43.8C567.35 42.9833 568.275 42.3583 569.325 41.925C570.391 41.475 571.533 41.25 572.75 41.25C574.033 41.25 575.108 41.4083 575.975 41.725C576.841 42.0417 577.641 42.525 578.375 43.175V45.975C577.975 45.4583 577.491 45.0083 576.925 44.625C576.358 44.225 575.725 43.9167 575.025 43.7C574.341 43.4833 573.583 43.375 572.75 43.375C571.6 43.375 570.533 43.6667 569.55 44.25C568.566 44.8333 567.766 45.6417 567.15 46.675C566.55 47.6917 566.25 48.8833 566.25 50.25ZM583.739 48V46.375H596.114V48H592.614H592.264H587.464H587.114H583.739ZM582.739 54V52.375H586.014H586.414H591.414H591.914H595.114V54H582.739ZM593.239 41.5H595.114L590.864 59H588.989L590.364 53.3L590.489 52.85L591.789 47.45L591.889 47.05L593.239 41.5ZM587.989 41.5H589.864L588.539 46.95L588.439 47.35L587.089 52.9L586.989 53.35L585.614 59H583.739L587.989 41.5Z" fill="#A179DC"/>
<path d="M535.56 13.8C535.56 14.448 535.704 15.02 535.992 15.516C536.288 16.012 536.672 16.4 537.144 16.68C537.616 16.96 538.128 17.1 538.68 17.1C539.08 17.1 539.444 17.048 539.772 16.944C540.108 16.84 540.412 16.696 540.684 16.512C540.956 16.32 541.188 16.1 541.38 15.852V17.196C541.028 17.508 540.644 17.74 540.228 17.892C539.812 18.044 539.296 18.12 538.68 18.12C538.096 18.12 537.548 18.016 537.036 17.808C536.532 17.592 536.088 17.292 535.704 16.908C535.32 16.516 535.02 16.056 534.804 15.528C534.588 15 534.48 14.424 534.48 13.8C534.48 13.176 534.588 12.6 534.804 12.072C535.02 11.544 535.32 11.088 535.704 10.704C536.088 10.312 536.532 10.012 537.036 9.804C537.548 9.588 538.096 9.48 538.68 9.48C539.296 9.48 539.812 9.556 540.228 9.708C540.644 9.86 541.028 10.092 541.38 10.404V11.748C541.188 11.5 540.956 11.284 540.684 11.1C540.412 10.908 540.108 10.76 539.772 10.656C539.444 10.552 539.08 10.5 538.68 10.5C538.128 10.5 537.616 10.64 537.144 10.92C536.672 11.2 536.288 11.588 535.992 12.084C535.704 12.572 535.56 13.144 535.56 13.8ZM543.475 15.24C543.475 14.68 543.599 14.184 543.847 13.752C544.103 13.32 544.447 12.98 544.879 12.732C545.311 12.484 545.795 12.36 546.331 12.36C546.875 12.36 547.359 12.484 547.783 12.732C548.215 12.98 548.555 13.32 548.803 13.752C549.059 14.184 549.187 14.68 549.187 15.24C549.187 15.792 549.059 16.288 548.803 16.728C548.555 17.16 548.215 17.5 547.783 17.748C547.359 17.996 546.875 18.12 546.331 18.12C545.795 18.12 545.311 17.996 544.879 17.748C544.447 17.5 544.103 17.16 543.847 16.728C543.599 16.288 543.475 15.792 543.475 15.24ZM544.447 15.24C544.447 15.624 544.527 15.964 544.687 16.26C544.855 16.556 545.079 16.792 545.359 16.968C545.647 17.136 545.971 17.22 546.331 17.22C546.691 17.22 547.011 17.136 547.291 16.968C547.579 16.792 547.803 16.556 547.963 16.26C548.131 15.964 548.215 15.624 548.215 15.24C548.215 14.856 548.131 14.516 547.963 14.22C547.803 13.916 547.579 13.68 547.291 13.512C547.011 13.344 546.691 13.26 546.331 13.26C545.971 13.26 545.647 13.344 545.359 13.512C545.079 13.68 544.855 13.916 544.687 14.22C544.527 14.516 544.447 14.856 544.447 15.24ZM554.886 14.64C554.886 14.184 554.786 13.84 554.586 13.608C554.386 13.376 554.094 13.26 553.71 13.26C553.43 13.26 553.182 13.32 552.966 13.44C552.758 13.552 552.594 13.712 552.474 13.92C552.362 14.128 552.306 14.368 552.306 14.64V18H551.346V12.48H552.306V13.344C552.49 13.008 552.718 12.76 552.99 12.6C553.27 12.44 553.59 12.36 553.95 12.36C554.534 12.36 554.994 12.556 555.33 12.948C555.674 13.332 555.846 13.856 555.846 14.52V18H554.886V14.64ZM558.718 16.308C558.83 16.476 558.958 16.632 559.102 16.776C559.246 16.92 559.41 17.036 559.594 17.124C559.786 17.204 559.994 17.244 560.218 17.244C560.49 17.244 560.702 17.184 560.854 17.064C561.014 16.936 561.094 16.764 561.094 16.548C561.094 16.356 561.03 16.196 560.902 16.068C560.782 15.932 560.626 15.82 560.434 15.732C560.242 15.636 560.038 15.548 559.822 15.468C559.582 15.372 559.338 15.26 559.09 15.132C558.85 14.996 558.646 14.824 558.478 14.616C558.318 14.4 558.238 14.132 558.238 13.812C558.238 13.484 558.322 13.212 558.49 12.996C558.666 12.78 558.89 12.62 559.162 12.516C559.442 12.412 559.73 12.36 560.026 12.36C560.322 12.36 560.598 12.408 560.854 12.504C561.118 12.6 561.35 12.728 561.55 12.888C561.75 13.048 561.906 13.232 562.018 13.44L561.25 13.932C561.098 13.724 560.906 13.552 560.674 13.416C560.45 13.28 560.194 13.212 559.906 13.212C559.706 13.212 559.534 13.256 559.39 13.344C559.246 13.432 559.174 13.568 559.174 13.752C559.174 13.896 559.23 14.024 559.342 14.136C559.454 14.248 559.598 14.348 559.774 14.436C559.95 14.524 560.134 14.608 560.326 14.688C560.646 14.816 560.938 14.956 561.202 15.108C561.466 15.252 561.674 15.428 561.826 15.636C561.986 15.844 562.066 16.112 562.066 16.44C562.066 16.92 561.89 17.32 561.538 17.64C561.194 17.96 560.738 18.12 560.17 18.12C559.802 18.12 559.47 18.056 559.174 17.928C558.878 17.792 558.626 17.62 558.418 17.412C558.218 17.204 558.066 16.992 557.962 16.776L558.718 16.308ZM563.69 15.24C563.69 14.68 563.814 14.184 564.062 13.752C564.318 13.32 564.662 12.98 565.094 12.732C565.526 12.484 566.01 12.36 566.546 12.36C567.09 12.36 567.574 12.484 567.998 12.732C568.43 12.98 568.77 13.32 569.018 13.752C569.274 14.184 569.402 14.68 569.402 15.24C569.402 15.792 569.274 16.288 569.018 16.728C568.77 17.16 568.43 17.5 567.998 17.748C567.574 17.996 567.09 18.12 566.546 18.12C566.01 18.12 565.526 17.996 565.094 17.748C564.662 17.5 564.318 17.16 564.062 16.728C563.814 16.288 563.69 15.792 563.69 15.24ZM564.662 15.24C564.662 15.624 564.742 15.964 564.902 16.26C565.07 16.556 565.294 16.792 565.574 16.968C565.862 17.136 566.186 17.22 566.546 17.22C566.906 17.22 567.226 17.136 567.506 16.968C567.794 16.792 568.018 16.556 568.178 16.26C568.346 15.964 568.43 15.624 568.43 15.24C568.43 14.856 568.346 14.516 568.178 14.22C568.018 13.916 567.794 13.68 567.506 13.512C567.226 13.344 566.906 13.26 566.546 13.26C566.186 13.26 565.862 13.344 565.574 13.512C565.294 13.68 565.07 13.916 564.902 14.22C564.742 14.516 564.662 14.856 564.662 15.24ZM571.561 8.64H572.521V18H571.561V8.64ZM577.303 18.12C576.791 18.12 576.335 18 575.935 17.76C575.543 17.512 575.235 17.172 575.011 16.74C574.795 16.308 574.687 15.808 574.687 15.24C574.687 14.664 574.799 14.16 575.023 13.728C575.255 13.296 575.575 12.96 575.983 12.72C576.399 12.48 576.879 12.36 577.423 12.36C577.967 12.36 578.431 12.476 578.815 12.708C579.207 12.932 579.507 13.256 579.715 13.68C579.923 14.104 580.027 14.608 580.027 15.192C580.027 15.248 580.023 15.308 580.015 15.372C580.015 15.428 580.015 15.464 580.015 15.48H575.299V14.664H579.259L578.875 15.216C578.899 15.176 578.923 15.116 578.947 15.036C578.971 14.948 578.983 14.876 578.983 14.82C578.983 14.492 578.915 14.208 578.779 13.968C578.651 13.728 578.471 13.54 578.239 13.404C578.007 13.268 577.735 13.2 577.423 13.2C577.055 13.2 576.739 13.28 576.475 13.44C576.219 13.592 576.019 13.816 575.875 14.112C575.739 14.4 575.667 14.756 575.659 15.18C575.659 15.612 575.727 15.98 575.863 16.284C575.999 16.588 576.199 16.82 576.463 16.98C576.727 17.14 577.047 17.22 577.423 17.22C577.799 17.22 578.131 17.14 578.419 16.98C578.707 16.812 578.951 16.56 579.151 16.224L579.931 16.716C579.643 17.18 579.279 17.532 578.839 17.772C578.407 18.004 577.895 18.12 577.303 18.12ZM581.825 17.52C581.825 17.336 581.889 17.18 582.017 17.052C582.153 16.924 582.309 16.86 582.485 16.86C582.669 16.86 582.825 16.924 582.953 17.052C583.081 17.18 583.145 17.336 583.145 17.52C583.145 17.696 583.081 17.852 582.953 17.988C582.825 18.116 582.669 18.18 582.485 18.18C582.309 18.18 582.153 18.116 582.017 17.988C581.889 17.852 581.825 17.696 581.825 17.52ZM593.558 15.78L595.742 9.6H596.882L593.582 18.42L591.062 11.892L588.542 18.42L585.242 9.6H586.382L588.614 15.78L591.062 9.18L593.558 15.78ZM598.861 12.48V18H597.901V12.48H598.861ZM600.529 13.536C600.401 13.44 600.285 13.372 600.181 13.332C600.077 13.284 599.945 13.26 599.785 13.26C599.545 13.26 599.357 13.32 599.221 13.44C599.085 13.56 598.989 13.724 598.933 13.932C598.885 14.14 598.861 14.376 598.861 14.64H598.429C598.429 14.2 598.505 13.812 598.657 13.476C598.817 13.132 599.021 12.86 599.269 12.66C599.517 12.46 599.769 12.36 600.025 12.36C600.225 12.36 600.409 12.388 600.577 12.444C600.753 12.492 600.913 12.592 601.057 12.744L600.529 13.536ZM602.855 10.2C602.855 10.016 602.919 9.86 603.047 9.732C603.183 9.604 603.339 9.54 603.515 9.54C603.699 9.54 603.855 9.604 603.983 9.732C604.111 9.86 604.175 10.016 604.175 10.2C604.175 10.376 604.111 10.532 603.983 10.668C603.855 10.796 603.699 10.86 603.515 10.86C603.339 10.86 603.183 10.796 603.047 10.668C602.919 10.532 602.855 10.376 602.855 10.2ZM603.035 12.48H603.995V18H603.035V12.48ZM605.972 12.48H608.732V13.38H605.972V12.48ZM606.872 10.56H607.832V18H606.872V10.56ZM612.671 18.12C612.159 18.12 611.703 18 611.303 17.76C610.911 17.512 610.603 17.172 610.379 16.74C610.163 16.308 610.055 15.808 610.055 15.24C610.055 14.664 610.167 14.16 610.391 13.728C610.623 13.296 610.943 12.96 611.351 12.72C611.767 12.48 612.247 12.36 612.791 12.36C613.335 12.36 613.799 12.476 614.183 12.708C614.575 12.932 614.875 13.256 615.083 13.68C615.291 14.104 615.395 14.608 615.395 15.192C615.395 15.248 615.391 15.308 615.383 15.372C615.383 15.428 615.383 15.464 615.383 15.48H610.667V14.664H614.627L614.243 15.216C614.267 15.176 614.291 15.116 614.315 15.036C614.339 14.948 614.351 14.876 614.351 14.82C614.351 14.492 614.283 14.208 614.147 13.968C614.019 13.728 613.839 13.54 613.607 13.404C613.375 13.268 613.103 13.2 612.791 13.2C612.423 13.2 612.107 13.28 611.843 13.44C611.587 13.592 611.387 13.816 611.243 14.112C611.107 14.4 611.035 14.756 611.027 15.18C611.027 15.612 611.095 15.98 611.231 16.284C611.367 16.588 611.567 16.82 611.831 16.98C612.095 17.14 612.415 17.22 612.791 17.22C613.167 17.22 613.499 17.14 613.787 16.98C614.075 16.812 614.319 16.56 614.519 16.224L615.299 16.716C615.011 17.18 614.647 17.532 614.207 17.772C613.775 18.004 613.263 18.12 612.671 18.12Z" fill="#A179DC"/>
<path d="M536.46 81.64H537.36C536.944 82.536 536.64 83.484 536.448 84.484C536.256 85.484 536.16 86.496 536.16 87.52C536.16 88.536 536.256 89.544 536.448 90.544C536.64 91.544 536.944 92.496 537.36 93.4H536.46C535.98 92.496 535.628 91.544 535.404 90.544C535.188 89.544 535.08 88.536 535.08 87.52C535.08 86.496 535.188 85.484 535.404 84.484C535.628 83.484 535.98 82.536 536.46 81.64ZM540.535 85.36H539.395L540.595 82.6H541.255L540.535 85.36ZM542.935 85.36H541.795L542.995 82.6H543.655L542.935 85.36ZM546.614 86.92V85.96H552.374V86.92H546.614ZM551.69 82.6H552.71V91H551.69V82.6ZM546.05 82.6H547.07V91H546.05V82.6ZM557.544 91.12C557.032 91.12 556.576 91 556.176 90.76C555.784 90.512 555.476 90.172 555.252 89.74C555.036 89.308 554.928 88.808 554.928 88.24C554.928 87.664 555.04 87.16 555.264 86.728C555.496 86.296 555.816 85.96 556.224 85.72C556.64 85.48 557.12 85.36 557.664 85.36C558.208 85.36 558.672 85.476 559.056 85.708C559.448 85.932 559.748 86.256 559.956 86.68C560.164 87.104 560.268 87.608 560.268 88.192C560.268 88.248 560.264 88.308 560.256 88.372C560.256 88.428 560.256 88.464 560.256 88.48H555.54V87.664H559.5L559.116 88.216C559.14 88.176 559.164 88.116 559.188 88.036C559.212 87.948 559.224 87.876 559.224 87.82C559.224 87.492 559.156 87.208 559.02 86.968C558.892 86.728 558.712 86.54 558.48 86.404C558.248 86.268 557.976 86.2 557.664 86.2C557.296 86.2 556.98 86.28 556.716 86.44C556.46 86.592 556.26 86.816 556.116 87.112C555.98 87.4 555.908 87.756 555.9 88.18C555.9 88.612 555.968 88.98 556.104 89.284C556.24 89.588 556.44 89.82 556.704 89.98C556.968 90.14 557.288 90.22 557.664 90.22C558.04 90.22 558.372 90.14 558.66 89.98C558.948 89.812 559.192 89.56 559.392 89.224L560.172 89.716C559.884 90.18 559.52 90.532 559.08 90.772C558.648 91.004 558.136 91.12 557.544 91.12ZM562.424 81.64H563.384V91H562.424V81.64ZM566.03 81.64H566.99V91H566.03V81.64ZM569.155 88.24C569.155 87.68 569.279 87.184 569.527 86.752C569.783 86.32 570.127 85.98 570.559 85.732C570.991 85.484 571.475 85.36 572.011 85.36C572.555 85.36 573.039 85.484 573.463 85.732C573.895 85.98 574.235 86.32 574.483 86.752C574.739 87.184 574.867 87.68 574.867 88.24C574.867 88.792 574.739 89.288 574.483 89.728C574.235 90.16 573.895 90.5 573.463 90.748C573.039 90.996 572.555 91.12 572.011 91.12C571.475 91.12 570.991 90.996 570.559 90.748C570.127 90.5 569.783 90.16 569.527 89.728C569.279 89.288 569.155 88.792 569.155 88.24ZM570.127 88.24C570.127 88.624 570.207 88.964 570.367 89.26C570.535 89.556 570.759 89.792 571.039 89.968C571.327 90.136 571.651 90.22 572.011 90.22C572.371 90.22 572.691 90.136 572.971 89.968C573.259 89.792 573.483 89.556 573.643 89.26C573.811 88.964 573.895 88.624 573.895 88.24C573.895 87.856 573.811 87.516 573.643 87.22C573.483 86.916 573.259 86.68 572.971 86.512C572.691 86.344 572.371 86.26 572.011 86.26C571.651 86.26 571.327 86.344 571.039 86.512C570.759 86.68 570.535 86.916 570.367 87.22C570.207 87.516 570.127 87.856 570.127 88.24ZM582.124 86.8C582.124 87.448 582.268 88.02 582.556 88.516C582.852 89.012 583.236 89.4 583.708 89.68C584.18 89.96 584.692 90.1 585.244 90.1C585.644 90.1 586.008 90.048 586.336 89.944C586.672 89.84 586.976 89.696 587.248 89.512C587.52 89.32 587.752 89.1 587.944 88.852V90.196C587.592 90.508 587.208 90.74 586.792 90.892C586.376 91.044 585.86 91.12 585.244 91.12C584.66 91.12 584.112 91.016 583.6 90.808C583.096 90.592 582.652 90.292 582.268 89.908C581.884 89.516 581.584 89.056 581.368 88.528C581.152 88 581.044 87.424 581.044 86.8C581.044 86.176 581.152 85.6 581.368 85.072C581.584 84.544 581.884 84.088 582.268 83.704C582.652 83.312 583.096 83.012 583.6 82.804C584.112 82.588 584.66 82.48 585.244 82.48C585.86 82.48 586.376 82.556 586.792 82.708C587.208 82.86 587.592 83.092 587.944 83.404V84.748C587.752 84.5 587.52 84.284 587.248 84.1C586.976 83.908 586.672 83.76 586.336 83.656C586.008 83.552 585.644 83.5 585.244 83.5C584.692 83.5 584.18 83.64 583.708 83.92C583.236 84.2 582.852 84.588 582.556 85.084C582.268 85.572 582.124 86.144 582.124 86.8ZM590.519 85.72V84.94H596.459V85.72H594.779H594.611H592.307H592.139H590.519ZM590.039 88.6V87.82H591.611H591.803H594.203H594.443H595.979V88.6H590.039ZM595.079 82.6H595.979L593.939 91H593.039L593.699 88.264L593.759 88.048L594.383 85.456L594.431 85.264L595.079 82.6ZM592.559 82.6H593.459L592.823 85.216L592.775 85.408L592.127 88.072L592.079 88.288L591.419 91H590.519L592.559 82.6ZM599.044 82.6H600.184L598.984 85.36H598.324L599.044 82.6ZM601.444 82.6H602.584L601.384 85.36H600.724L601.444 82.6ZM605.52 93.4H604.62C605.044 92.496 605.348 91.544 605.532 90.544C605.724 89.544 605.82 88.536 605.82 87.52C605.82 86.496 605.724 85.484 605.532 84.484C605.348 83.484 605.044 82.536 604.62 81.64H605.52C606 82.536 606.348 83.484 606.564 84.484C606.788 85.484 606.9 86.496 606.9 87.52C606.9 88.536 606.788 89.544 606.564 90.544C606.348 91.544 606 92.496 605.52 93.4ZM610.314 85.96C610.314 85.776 610.378 85.62 610.506 85.492C610.642 85.364 610.798 85.3 610.974 85.3C611.158 85.3 611.314 85.364 611.442 85.492C611.57 85.62 611.634 85.776 611.634 85.96C611.634 86.136 611.57 86.292 611.442 86.428C611.314 86.556 611.158 86.62 610.974 86.62C610.798 86.62 610.642 86.556 610.506 86.428C610.378 86.292 610.314 86.136 610.314 85.96ZM610.59 89.68L611.55 90.04L610.23 93.04L609.534 92.788L610.59 89.68Z" fill="#A179DC"/>
<path d="M24.4241 114.864V113.12H32.4081V114.864H24.4241ZM31.1921 108.8H33.0801V120H31.1921V108.8ZM23.6721 108.8H25.5601V120H23.6721V108.8ZM35.5783 110.544V108.8H43.3863V110.544H40.4263V120H38.5223V110.544H35.5783ZM47.9608 113.184L47.1928 120H45.2408L46.7768 108.24L51.3688 115.84L55.9768 108.24L57.5128 120H55.5608L54.7768 113.184L51.3688 118.96L47.9608 113.184ZM60.4696 108.8H62.3576V118.304H66.8056V120H60.4696V108.8ZM76.9407 116.352C76.9407 117.003 76.8287 117.568 76.6047 118.048C76.3807 118.528 76.0714 118.928 75.6767 119.248C75.282 119.557 74.834 119.792 74.3327 119.952C73.842 120.101 73.3247 120.176 72.7807 120.176C72.098 120.176 71.4954 120.085 70.9727 119.904C70.45 119.723 69.9967 119.483 69.6127 119.184C69.2287 118.875 68.8927 118.544 68.6047 118.192L69.7087 116.832C69.9327 117.12 70.194 117.387 70.4927 117.632C70.802 117.867 71.1327 118.059 71.4847 118.208C71.8367 118.347 72.1887 118.416 72.5407 118.416C73.0527 118.416 73.4847 118.331 73.8367 118.16C74.1887 117.989 74.4554 117.739 74.6367 117.408C74.8287 117.077 74.9247 116.688 74.9247 116.24C74.9247 115.781 74.818 115.392 74.6047 115.072C74.3914 114.752 74.1034 114.507 73.7407 114.336C73.378 114.165 72.978 114.08 72.5407 114.08C72.2207 114.08 71.9007 114.107 71.5807 114.16C71.2714 114.203 70.9514 114.288 70.6207 114.416C70.3007 114.544 69.9487 114.725 69.5647 114.96L71.0847 108.8H76.8287V110.464H72.5087L71.8047 113.024C72.082 112.885 72.37 112.784 72.6687 112.72C72.9674 112.656 73.2714 112.624 73.5807 112.624C74.1994 112.624 74.7647 112.779 75.2767 113.088C75.7887 113.397 76.194 113.829 76.4927 114.384C76.7914 114.939 76.9407 115.595 76.9407 116.352Z" fill="#1A2961"/>
<path d="M137.554 114.4C137.554 115.189 137.73 115.883 138.082 116.48C138.444 117.077 138.914 117.541 139.49 117.872C140.076 118.192 140.711 118.352 141.394 118.352C141.927 118.352 142.407 118.283 142.834 118.144C143.26 118.005 143.644 117.819 143.986 117.584C144.338 117.339 144.642 117.067 144.898 116.768V119.008C144.428 119.392 143.922 119.685 143.378 119.888C142.834 120.091 142.151 120.192 141.33 120.192C140.508 120.192 139.74 120.053 139.026 119.776C138.322 119.499 137.708 119.099 137.186 118.576C136.663 118.053 136.252 117.44 135.954 116.736C135.666 116.021 135.522 115.243 135.522 114.4C135.522 113.557 135.666 112.784 135.954 112.08C136.252 111.365 136.663 110.747 137.186 110.224C137.708 109.701 138.322 109.301 139.026 109.024C139.74 108.747 140.508 108.608 141.33 108.608C142.151 108.608 142.834 108.709 143.378 108.912C143.922 109.115 144.428 109.408 144.898 109.792V112.032C144.642 111.733 144.338 111.467 143.986 111.232C143.644 110.987 143.26 110.795 142.834 110.656C142.407 110.517 141.927 110.448 141.394 110.448C140.711 110.448 140.076 110.613 139.49 110.944C138.914 111.264 138.444 111.723 138.082 112.32C137.73 112.907 137.554 113.6 137.554 114.4ZM149.08 116.4C149.326 116.827 149.587 117.205 149.864 117.536C150.152 117.856 150.467 118.107 150.808 118.288C151.15 118.459 151.534 118.544 151.96 118.544C152.472 118.544 152.888 118.405 153.208 118.128C153.528 117.851 153.688 117.493 153.688 117.056C153.688 116.64 153.587 116.309 153.384 116.064C153.182 115.808 152.899 115.595 152.536 115.424C152.184 115.243 151.774 115.067 151.304 114.896C151.027 114.8 150.718 114.672 150.376 114.512C150.035 114.341 149.71 114.133 149.4 113.888C149.091 113.632 148.835 113.323 148.632 112.96C148.43 112.587 148.328 112.139 148.328 111.616C148.328 111.019 148.483 110.496 148.792 110.048C149.102 109.589 149.518 109.237 150.04 108.992C150.574 108.736 151.176 108.608 151.848 108.608C152.51 108.608 153.086 108.725 153.576 108.96C154.067 109.195 154.478 109.493 154.808 109.856C155.15 110.219 155.416 110.597 155.608 110.992L154.072 111.856C153.934 111.579 153.758 111.323 153.544 111.088C153.331 110.843 153.08 110.651 152.792 110.512C152.515 110.363 152.19 110.288 151.816 110.288C151.294 110.288 150.91 110.411 150.664 110.656C150.419 110.891 150.296 111.168 150.296 111.488C150.296 111.776 150.382 112.037 150.552 112.272C150.734 112.496 151.011 112.709 151.384 112.912C151.758 113.115 152.243 113.323 152.84 113.536C153.171 113.653 153.502 113.803 153.832 113.984C154.174 114.165 154.483 114.395 154.76 114.672C155.038 114.939 155.256 115.253 155.416 115.616C155.587 115.979 155.672 116.405 155.672 116.896C155.672 117.419 155.571 117.888 155.368 118.304C155.166 118.72 154.888 119.072 154.536 119.36C154.184 119.637 153.784 119.851 153.336 120C152.899 120.16 152.44 120.24 151.96 120.24C151.299 120.24 150.686 120.112 150.12 119.856C149.566 119.589 149.08 119.237 148.664 118.8C148.248 118.363 147.918 117.888 147.672 117.376L149.08 116.4ZM159.466 116.4C159.711 116.827 159.973 117.205 160.25 117.536C160.538 117.856 160.853 118.107 161.194 118.288C161.535 118.459 161.919 118.544 162.346 118.544C162.858 118.544 163.274 118.405 163.594 118.128C163.914 117.851 164.074 117.493 164.074 117.056C164.074 116.64 163.973 116.309 163.77 116.064C163.567 115.808 163.285 115.595 162.922 115.424C162.57 115.243 162.159 115.067 161.69 114.896C161.413 114.8 161.103 114.672 160.762 114.512C160.421 114.341 160.095 114.133 159.786 113.888C159.477 113.632 159.221 113.323 159.018 112.96C158.815 112.587 158.714 112.139 158.714 111.616C158.714 111.019 158.869 110.496 159.178 110.048C159.487 109.589 159.903 109.237 160.426 108.992C160.959 108.736 161.562 108.608 162.234 108.608C162.895 108.608 163.471 108.725 163.962 108.96C164.453 109.195 164.863 109.493 165.194 109.856C165.535 110.219 165.802 110.597 165.994 110.992L164.458 111.856C164.319 111.579 164.143 111.323 163.93 111.088C163.717 110.843 163.466 110.651 163.178 110.512C162.901 110.363 162.575 110.288 162.202 110.288C161.679 110.288 161.295 110.411 161.05 110.656C160.805 110.891 160.682 111.168 160.682 111.488C160.682 111.776 160.767 112.037 160.938 112.272C161.119 112.496 161.397 112.709 161.77 112.912C162.143 113.115 162.629 113.323 163.226 113.536C163.557 113.653 163.887 113.803 164.218 113.984C164.559 114.165 164.869 114.395 165.146 114.672C165.423 114.939 165.642 115.253 165.802 115.616C165.973 115.979 166.058 116.405 166.058 116.896C166.058 117.419 165.957 117.888 165.754 118.304C165.551 118.72 165.274 119.072 164.922 119.36C164.57 119.637 164.17 119.851 163.722 120C163.285 120.16 162.826 120.24 162.346 120.24C161.685 120.24 161.071 120.112 160.506 119.856C159.951 119.589 159.466 119.237 159.05 118.8C158.634 118.363 158.303 117.888 158.058 117.376L159.466 116.4ZM172.06 114.512V113.504C172.401 113.504 172.705 113.461 172.972 113.376C173.238 113.28 173.462 113.152 173.644 112.992C173.836 112.832 173.98 112.645 174.076 112.432C174.182 112.208 174.236 111.979 174.236 111.744C174.236 111.445 174.177 111.184 174.06 110.96C173.942 110.725 173.772 110.544 173.548 110.416C173.324 110.288 173.046 110.224 172.716 110.224C172.225 110.224 171.814 110.373 171.484 110.672C171.164 110.96 171.004 111.328 171.004 111.776H169.228C169.228 111.157 169.372 110.613 169.66 110.144C169.958 109.675 170.369 109.307 170.892 109.04C171.414 108.763 172.017 108.624 172.7 108.624C173.425 108.624 174.044 108.763 174.556 109.04C175.068 109.317 175.457 109.685 175.724 110.144C176.001 110.592 176.14 111.093 176.14 111.648C176.14 112.213 175.964 112.715 175.612 113.152C175.26 113.589 174.774 113.925 174.156 114.16C173.548 114.395 172.849 114.512 172.06 114.512ZM172.62 120.192C172.022 120.192 171.484 120.107 171.004 119.936C170.524 119.755 170.118 119.509 169.788 119.2C169.457 118.88 169.201 118.517 169.02 118.112C168.838 117.696 168.748 117.259 168.748 116.8H170.636C170.636 117.163 170.721 117.477 170.892 117.744C171.073 118 171.318 118.203 171.628 118.352C171.937 118.491 172.278 118.56 172.652 118.56C173.036 118.56 173.366 118.491 173.644 118.352C173.932 118.213 174.156 118.016 174.316 117.76C174.476 117.493 174.556 117.173 174.556 116.8C174.556 116.501 174.497 116.235 174.38 116C174.262 115.765 174.092 115.568 173.868 115.408C173.654 115.248 173.393 115.125 173.084 115.04C172.774 114.955 172.433 114.912 172.06 114.912V113.84C172.678 113.84 173.254 113.904 173.788 114.032C174.321 114.149 174.785 114.336 175.18 114.592C175.585 114.837 175.9 115.163 176.124 115.568C176.348 115.963 176.46 116.443 176.46 117.008C176.46 117.637 176.3 118.192 175.98 118.672C175.66 119.152 175.212 119.525 174.636 119.792C174.06 120.059 173.388 120.192 172.62 120.192Z" fill="#1A2961"/>
<path d="M242.882 116.4C243.127 116.827 243.389 117.205 243.666 117.536C243.954 117.856 244.269 118.107 244.61 118.288C244.951 118.459 245.335 118.544 245.762 118.544C246.274 118.544 246.69 118.405 247.01 118.128C247.33 117.851 247.49 117.493 247.49 117.056C247.49 116.64 247.389 116.309 247.186 116.064C246.983 115.808 246.701 115.595 246.338 115.424C245.986 115.243 245.575 115.067 245.106 114.896C244.829 114.8 244.519 114.672 244.178 114.512C243.837 114.341 243.511 114.133 243.202 113.888C242.893 113.632 242.637 113.323 242.434 112.96C242.231 112.587 242.13 112.139 242.13 111.616C242.13 111.019 242.285 110.496 242.594 110.048C242.903 109.589 243.319 109.237 243.842 108.992C244.375 108.736 244.978 108.608 245.65 108.608C246.311 108.608 246.887 108.725 247.378 108.96C247.869 109.195 248.279 109.493 248.61 109.856C248.951 110.219 249.218 110.597 249.41 110.992L247.874 111.856C247.735 111.579 247.559 111.323 247.346 111.088C247.133 110.843 246.882 110.651 246.594 110.512C246.317 110.363 245.991 110.288 245.618 110.288C245.095 110.288 244.711 110.411 244.466 110.656C244.221 110.891 244.098 111.168 244.098 111.488C244.098 111.776 244.183 112.037 244.354 112.272C244.535 112.496 244.813 112.709 245.186 112.912C245.559 113.115 246.045 113.323 246.642 113.536C246.973 113.653 247.303 113.803 247.634 113.984C247.975 114.165 248.285 114.395 248.562 114.672C248.839 114.939 249.058 115.253 249.218 115.616C249.389 115.979 249.474 116.405 249.474 116.896C249.474 117.419 249.373 117.888 249.17 118.304C248.967 118.72 248.69 119.072 248.338 119.36C247.986 119.637 247.586 119.851 247.138 120C246.701 120.16 246.242 120.24 245.762 120.24C245.101 120.24 244.487 120.112 243.922 119.856C243.367 119.589 242.882 119.237 242.466 118.8C242.05 118.363 241.719 117.888 241.474 117.376L242.882 116.4ZM253.876 117.12L254.228 115.52H259.428L259.796 117.12H253.876ZM256.804 111.968L255.044 116.08L255.012 116.496L253.46 120H251.332L256.804 108.176L262.276 120H260.148L258.628 116.592L258.58 116.128L256.804 111.968ZM265.435 116.4C265.68 116.827 265.941 117.205 266.219 117.536C266.507 117.856 266.821 118.107 267.163 118.288C267.504 118.459 267.888 118.544 268.315 118.544C268.827 118.544 269.243 118.405 269.563 118.128C269.883 117.851 270.043 117.493 270.043 117.056C270.043 116.64 269.941 116.309 269.739 116.064C269.536 115.808 269.253 115.595 268.891 115.424C268.539 115.243 268.128 115.067 267.659 114.896C267.381 114.8 267.072 114.672 266.731 114.512C266.389 114.341 266.064 114.133 265.755 113.888C265.445 113.632 265.189 113.323 264.987 112.96C264.784 112.587 264.683 112.139 264.683 111.616C264.683 111.019 264.837 110.496 265.147 110.048C265.456 109.589 265.872 109.237 266.395 108.992C266.928 108.736 267.531 108.608 268.203 108.608C268.864 108.608 269.44 108.725 269.931 108.96C270.421 109.195 270.832 109.493 271.163 109.856C271.504 110.219 271.771 110.597 271.963 110.992L270.427 111.856C270.288 111.579 270.112 111.323 269.899 111.088C269.685 110.843 269.435 110.651 269.147 110.512C268.869 110.363 268.544 110.288 268.171 110.288C267.648 110.288 267.264 110.411 267.019 110.656C266.773 110.891 266.651 111.168 266.651 111.488C266.651 111.776 266.736 112.037 266.907 112.272C267.088 112.496 267.365 112.709 267.739 112.912C268.112 113.115 268.597 113.323 269.195 113.536C269.525 113.653 269.856 113.803 270.187 113.984C270.528 114.165 270.837 114.395 271.115 114.672C271.392 114.939 271.611 115.253 271.771 115.616C271.941 115.979 272.027 116.405 272.027 116.896C272.027 117.419 271.925 117.888 271.723 118.304C271.52 118.72 271.243 119.072 270.891 119.36C270.539 119.637 270.139 119.851 269.691 120C269.253 120.16 268.795 120.24 268.315 120.24C267.653 120.24 267.04 120.112 266.475 119.856C265.92 119.589 265.435 119.237 265.019 118.8C264.603 118.363 264.272 117.888 264.027 117.376L265.435 116.4ZM275.82 116.4C276.066 116.827 276.327 117.205 276.604 117.536C276.892 117.856 277.207 118.107 277.548 118.288C277.89 118.459 278.274 118.544 278.7 118.544C279.212 118.544 279.628 118.405 279.948 118.128C280.268 117.851 280.428 117.493 280.428 117.056C280.428 116.64 280.327 116.309 280.124 116.064C279.922 115.808 279.639 115.595 279.276 115.424C278.924 115.243 278.514 115.067 278.044 114.896C277.767 114.8 277.458 114.672 277.116 114.512C276.775 114.341 276.45 114.133 276.14 113.888C275.831 113.632 275.575 113.323 275.372 112.96C275.17 112.587 275.068 112.139 275.068 111.616C275.068 111.019 275.223 110.496 275.532 110.048C275.842 109.589 276.258 109.237 276.78 108.992C277.314 108.736 277.916 108.608 278.588 108.608C279.25 108.608 279.826 108.725 280.316 108.96C280.807 109.195 281.218 109.493 281.548 109.856C281.89 110.219 282.156 110.597 282.348 110.992L280.812 111.856C280.674 111.579 280.498 111.323 280.284 111.088C280.071 110.843 279.82 110.651 279.532 110.512C279.255 110.363 278.93 110.288 278.556 110.288C278.034 110.288 277.65 110.411 277.404 110.656C277.159 110.891 277.036 111.168 277.036 111.488C277.036 111.776 277.122 112.037 277.292 112.272C277.474 112.496 277.751 112.709 278.124 112.912C278.498 113.115 278.983 113.323 279.58 113.536C279.911 113.653 280.242 113.803 280.572 113.984C280.914 114.165 281.223 114.395 281.5 114.672C281.778 114.939 281.996 115.253 282.156 115.616C282.327 115.979 282.412 116.405 282.412 116.896C282.412 117.419 282.311 117.888 282.108 118.304C281.906 118.72 281.628 119.072 281.276 119.36C280.924 119.637 280.524 119.851 280.076 120C279.639 120.16 279.18 120.24 278.7 120.24C278.039 120.24 277.426 120.112 276.86 119.856C276.306 119.589 275.82 119.237 275.404 118.8C274.988 118.363 274.658 117.888 274.412 117.376L275.82 116.4Z" fill="#1A2961"/>
<path d="M328.59 121.408C328.729 121.568 328.91 121.701 329.134 121.808C329.358 121.915 329.604 121.968 329.87 121.968C330.116 121.968 330.356 121.861 330.59 121.648C330.825 121.445 330.942 121.088 330.942 120.576V108.8H332.878V120.928C332.878 121.397 332.804 121.803 332.654 122.144C332.505 122.485 332.297 122.768 332.03 122.992C331.774 123.216 331.465 123.376 331.102 123.472C330.74 123.579 330.345 123.632 329.918 123.632C329.588 123.632 329.268 123.584 328.958 123.488C328.649 123.403 328.377 123.296 328.142 123.168C327.908 123.04 327.721 122.917 327.582 122.8L328.59 121.408ZM337.428 117.712C337.428 117.957 337.487 118.171 337.604 118.352C337.722 118.523 337.882 118.651 338.084 118.736C338.298 118.821 338.538 118.864 338.804 118.864C339.146 118.864 339.455 118.795 339.732 118.656C340.02 118.517 340.25 118.315 340.42 118.048C340.602 117.771 340.692 117.451 340.692 117.088L340.948 118.048C340.948 118.517 340.81 118.912 340.532 119.232C340.266 119.541 339.924 119.776 339.508 119.936C339.103 120.085 338.687 120.16 338.26 120.16C337.802 120.16 337.375 120.069 336.98 119.888C336.586 119.707 336.271 119.44 336.036 119.088C335.802 118.736 335.684 118.309 335.684 117.808C335.684 117.093 335.935 116.528 336.436 116.112C336.938 115.685 337.647 115.472 338.564 115.472C339.055 115.472 339.476 115.525 339.828 115.632C340.191 115.739 340.49 115.867 340.724 116.016C340.959 116.155 341.124 116.283 341.22 116.4V117.28C340.89 117.045 340.538 116.875 340.164 116.768C339.791 116.661 339.396 116.608 338.98 116.608C338.618 116.608 338.324 116.656 338.1 116.752C337.876 116.837 337.706 116.96 337.588 117.12C337.482 117.28 337.428 117.477 337.428 117.712ZM336.884 114.56L336.18 113.344C336.511 113.141 336.938 112.944 337.46 112.752C337.994 112.56 338.602 112.464 339.284 112.464C339.892 112.464 340.426 112.555 340.884 112.736C341.354 112.917 341.722 113.179 341.988 113.52C342.255 113.851 342.388 114.261 342.388 114.752V120H340.692V115.088C340.692 114.853 340.65 114.661 340.564 114.512C340.49 114.363 340.383 114.24 340.244 114.144C340.106 114.048 339.94 113.979 339.748 113.936C339.556 113.893 339.348 113.872 339.124 113.872C338.783 113.872 338.458 113.915 338.148 114C337.85 114.075 337.588 114.171 337.364 114.288C337.151 114.395 336.991 114.485 336.884 114.56ZM344.325 112.64H346.213L348.133 117.392L350.053 112.64H351.957L348.133 120.672L344.325 112.64ZM355.246 117.712C355.246 117.957 355.305 118.171 355.422 118.352C355.54 118.523 355.7 118.651 355.902 118.736C356.116 118.821 356.356 118.864 356.622 118.864C356.964 118.864 357.273 118.795 357.55 118.656C357.838 118.517 358.068 118.315 358.238 118.048C358.42 117.771 358.51 117.451 358.51 117.088L358.766 118.048C358.766 118.517 358.628 118.912 358.35 119.232C358.084 119.541 357.742 119.776 357.326 119.936C356.921 120.085 356.505 120.16 356.078 120.16C355.62 120.16 355.193 120.069 354.798 119.888C354.404 119.707 354.089 119.44 353.854 119.088C353.62 118.736 353.502 118.309 353.502 117.808C353.502 117.093 353.753 116.528 354.254 116.112C354.756 115.685 355.465 115.472 356.382 115.472C356.873 115.472 357.294 115.525 357.646 115.632C358.009 115.739 358.308 115.867 358.542 116.016C358.777 116.155 358.942 116.283 359.038 116.4V117.28C358.708 117.045 358.356 116.875 357.982 116.768C357.609 116.661 357.214 116.608 356.798 116.608C356.436 116.608 356.142 116.656 355.918 116.752C355.694 116.837 355.524 116.96 355.406 117.12C355.3 117.28 355.246 117.477 355.246 117.712ZM354.702 114.56L353.998 113.344C354.329 113.141 354.756 112.944 355.278 112.752C355.812 112.56 356.42 112.464 357.102 112.464C357.71 112.464 358.244 112.555 358.702 112.736C359.172 112.917 359.54 113.179 359.806 113.52C360.073 113.851 360.206 114.261 360.206 114.752V120H358.51V115.088C358.51 114.853 358.468 114.661 358.382 114.512C358.308 114.363 358.201 114.24 358.062 114.144C357.924 114.048 357.758 113.979 357.566 113.936C357.374 113.893 357.166 113.872 356.942 113.872C356.601 113.872 356.276 113.915 355.966 114C355.668 114.075 355.406 114.171 355.182 114.288C354.969 114.395 354.809 114.485 354.702 114.56ZM363.677 117.584C363.912 117.84 364.146 118.064 364.381 118.256C364.626 118.437 364.872 118.576 365.117 118.672C365.362 118.757 365.608 118.8 365.853 118.8C366.162 118.8 366.402 118.731 366.573 118.592C366.754 118.453 366.845 118.261 366.845 118.016C366.845 117.803 366.776 117.621 366.637 117.472C366.498 117.312 366.306 117.179 366.061 117.072C365.816 116.955 365.528 116.837 365.197 116.72C364.866 116.592 364.536 116.443 364.205 116.272C363.885 116.091 363.618 115.856 363.405 115.568C363.202 115.28 363.101 114.917 363.101 114.48C363.101 114.032 363.213 113.659 363.437 113.36C363.672 113.061 363.981 112.843 364.365 112.704C364.76 112.555 365.181 112.48 365.629 112.48C366.034 112.48 366.413 112.539 366.765 112.656C367.128 112.773 367.453 112.928 367.741 113.12C368.029 113.312 368.274 113.531 368.477 113.776L367.517 114.8C367.272 114.512 366.978 114.277 366.637 114.096C366.296 113.915 365.944 113.824 365.581 113.824C365.336 113.824 365.133 113.877 364.973 113.984C364.813 114.091 364.733 114.245 364.733 114.448C364.733 114.619 364.802 114.773 364.941 114.912C365.09 115.04 365.282 115.157 365.517 115.264C365.762 115.371 366.034 115.483 366.333 115.6C366.738 115.76 367.112 115.936 367.453 116.128C367.794 116.32 368.066 116.555 368.269 116.832C368.482 117.109 368.589 117.472 368.589 117.92C368.589 118.613 368.349 119.173 367.869 119.6C367.4 120.016 366.76 120.224 365.949 120.224C365.448 120.224 364.984 120.149 364.557 120C364.141 119.84 363.773 119.637 363.453 119.392C363.144 119.136 362.882 118.869 362.669 118.592L363.677 117.584ZM372.394 116.32C372.394 116.789 372.495 117.2 372.698 117.552C372.901 117.893 373.173 118.165 373.514 118.368C373.866 118.571 374.255 118.672 374.682 118.672C375.034 118.672 375.37 118.619 375.69 118.512C376.01 118.405 376.293 118.256 376.538 118.064C376.783 117.872 376.965 117.659 377.082 117.424V119.328C376.826 119.584 376.479 119.787 376.042 119.936C375.605 120.085 375.125 120.16 374.602 120.16C373.845 120.16 373.162 120 372.554 119.68C371.957 119.349 371.482 118.896 371.13 118.32C370.789 117.733 370.618 117.067 370.618 116.32C370.618 115.563 370.789 114.896 371.13 114.32C371.482 113.744 371.957 113.296 372.554 112.976C373.162 112.645 373.845 112.48 374.602 112.48C375.125 112.48 375.605 112.555 376.042 112.704C376.479 112.853 376.826 113.056 377.082 113.312V115.216C376.965 114.971 376.778 114.757 376.522 114.576C376.277 114.384 375.994 114.235 375.674 114.128C375.354 114.021 375.023 113.968 374.682 113.968C374.255 113.968 373.866 114.069 373.514 114.272C373.173 114.475 372.901 114.752 372.698 115.104C372.495 115.456 372.394 115.861 372.394 116.32ZM381.824 112.64V120H380.112V112.64H381.824ZM384.016 114.48C383.856 114.352 383.707 114.256 383.568 114.192C383.429 114.128 383.253 114.096 383.04 114.096C382.752 114.096 382.517 114.171 382.336 114.32C382.155 114.469 382.021 114.677 381.936 114.944C381.861 115.2 381.824 115.504 381.824 115.856L381.248 115.52C381.248 114.933 381.355 114.416 381.568 113.968C381.792 113.509 382.075 113.147 382.416 112.88C382.768 112.613 383.131 112.48 383.504 112.48C383.771 112.48 384.021 112.523 384.256 112.608C384.491 112.683 384.688 112.821 384.848 113.024L384.016 114.48ZM387.09 109.712C387.09 109.413 387.197 109.163 387.41 108.96C387.634 108.757 387.89 108.656 388.178 108.656C388.487 108.656 388.743 108.757 388.946 108.96C389.159 109.163 389.266 109.413 389.266 109.712C389.266 110 389.159 110.251 388.946 110.464C388.743 110.667 388.487 110.768 388.178 110.768C387.89 110.768 387.634 110.667 387.41 110.464C387.197 110.251 387.09 110 387.09 109.712ZM387.33 112.64H389.026V120H387.33V112.64ZM394.204 123.52H392.46V112.64H394.204V123.52ZM400.3 116.32C400.3 117.131 400.135 117.829 399.804 118.416C399.473 118.992 399.036 119.435 398.492 119.744C397.948 120.043 397.356 120.192 396.716 120.192C396.087 120.192 395.537 120.037 395.068 119.728C394.609 119.408 394.252 118.96 393.996 118.384C393.751 117.797 393.628 117.109 393.628 116.32C393.628 115.52 393.751 114.832 393.996 114.256C394.252 113.68 394.609 113.237 395.068 112.928C395.537 112.608 396.087 112.448 396.716 112.448C397.356 112.448 397.948 112.603 398.492 112.912C399.036 113.211 399.473 113.648 399.804 114.224C400.135 114.8 400.3 115.499 400.3 116.32ZM398.508 116.32C398.508 115.829 398.407 115.413 398.204 115.072C398.001 114.72 397.729 114.459 397.388 114.288C397.057 114.107 396.689 114.016 396.284 114.016C395.953 114.016 395.628 114.107 395.308 114.288C394.988 114.459 394.721 114.715 394.508 115.056C394.305 115.397 394.204 115.819 394.204 116.32C394.204 116.821 394.305 117.243 394.508 117.584C394.721 117.925 394.988 118.187 395.308 118.368C395.628 118.539 395.953 118.624 396.284 118.624C396.689 118.624 397.057 118.539 397.388 118.368C397.729 118.187 398.001 117.925 398.204 117.584C398.407 117.232 398.508 116.811 398.508 116.32ZM402.042 112.64H406.218V114.16H402.042V112.64ZM403.274 110.08H404.986V120H403.274V110.08Z" fill="#1A2961"/>
<path d="M459.77 114.4C459.77 115.189 459.946 115.883 460.298 116.48C460.661 117.077 461.13 117.541 461.706 117.872C462.293 118.192 462.927 118.352 463.61 118.352C464.143 118.352 464.623 118.283 465.05 118.144C465.477 118.005 465.861 117.819 466.202 117.584C466.554 117.339 466.858 117.067 467.114 116.768V119.008C466.645 119.392 466.138 119.685 465.594 119.888C465.05 120.091 464.367 120.192 463.546 120.192C462.725 120.192 461.957 120.053 461.242 119.776C460.538 119.499 459.925 119.099 459.402 118.576C458.879 118.053 458.469 117.44 458.17 116.736C457.882 116.021 457.738 115.243 457.738 114.4C457.738 113.557 457.882 112.784 458.17 112.08C458.469 111.365 458.879 110.747 459.402 110.224C459.925 109.701 460.538 109.301 461.242 109.024C461.957 108.747 462.725 108.608 463.546 108.608C464.367 108.608 465.05 108.709 465.594 108.912C466.138 109.115 466.645 109.408 467.114 109.792V112.032C466.858 111.733 466.554 111.467 466.202 111.232C465.861 110.987 465.477 110.795 465.05 110.656C464.623 110.517 464.143 110.448 463.61 110.448C462.927 110.448 462.293 110.613 461.706 110.944C461.13 111.264 460.661 111.723 460.298 112.32C459.946 112.907 459.77 113.6 459.77 114.4ZM470.352 116.672V114.976H478.496V116.672H470.352ZM473.52 111.744H475.328V119.92H473.52V111.744ZM481.691 116.672V114.976H489.835V116.672H481.691ZM484.859 111.744H486.667V119.92H484.859V111.744Z" fill="#1A2961"/>
<path d="M571.51 114.4C571.51 115.189 571.686 115.883 572.038 116.48C572.4 117.077 572.87 117.541 573.446 117.872C574.032 118.192 574.667 118.352 575.35 118.352C575.883 118.352 576.363 118.283 576.79 118.144C577.216 118.005 577.6 117.819 577.942 117.584C578.294 117.339 578.598 117.067 578.854 116.768V119.008C578.384 119.392 577.878 119.685 577.334 119.888C576.79 120.091 576.107 120.192 575.286 120.192C574.464 120.192 573.696 120.053 572.982 119.776C572.278 119.499 571.664 119.099 571.142 118.576C570.619 118.053 570.208 117.44 569.91 116.736C569.622 116.021 569.478 115.243 569.478 114.4C569.478 113.557 569.622 112.784 569.91 112.08C570.208 111.365 570.619 110.747 571.142 110.224C571.664 109.701 572.278 109.301 572.982 109.024C573.696 108.747 574.464 108.608 575.286 108.608C576.107 108.608 576.79 108.709 577.334 108.912C577.878 109.115 578.384 109.408 578.854 109.792V112.032C578.598 111.733 578.294 111.467 577.942 111.232C577.6 110.987 577.216 110.795 576.79 110.656C576.363 110.517 575.883 110.448 575.35 110.448C574.667 110.448 574.032 110.613 573.446 110.944C572.87 111.264 572.4 111.723 572.038 112.32C571.686 112.907 571.51 113.6 571.51 114.4ZM582.252 113.136V111.744H590.572V113.136H588.236L587.916 113.104H584.764L584.46 113.136H582.252ZM581.612 116.976V115.584H583.772L584.124 115.616H587.516L587.9 115.584H589.932V116.976H581.612ZM588.444 108.8H590.012L587.292 120H585.724L586.604 116.368L586.732 116.048L587.548 112.64L587.596 112.304L588.444 108.8ZM584.892 108.8H586.444L585.612 112.256L585.484 112.608L584.652 116.048L584.604 116.384L583.724 120H582.172L584.892 108.8Z" fill="#1A2961"/>
</g>
<defs>
<clipPath id="clip0_120_40">
<rect width="630" height="128" fill="white"/>
</clipPath>
</defs>
</svg>
